<?xml version="1.0" standalone="no"?>
<!DOCTYPE svg PUBLIC "-//W3C//DTD SVG 20010904//EN"
 "http://www.w3.org/TR/2001/REC-SVG-20010904/DTD/svg10.dtd">
<svg version="1.0" xmlns="http://www.w3.org/2000/svg"
 width="995.000000pt" height="661.000000pt" viewBox="0 0 995.000000 661.000000"
 preserveAspectRatio="xMidYMid meet">

<g transform="translate(0.000000,661.000000) scale(0.100000,-0.100000)"
fill="#000000" stroke="none">
<path d="M5 5110 c3 -5 8 -10 11 -10 2 0 4 5 4 10 0 6 -5 10 -11 10 -5 0 -7
-4 -4 -10z"/>
<path d="M171 5076 c-7 -8 -19 -12 -27 -9 -8 3 -14 0 -14 -6 0 -6 -10 -11 -22
-11 -12 0 -34 -12 -50 -27 -23 -22 -30 -24 -43 -13 -13 11 -15 -132 -15 -1415
0 -1355 1 -1427 18 -1422 9 3 136 51 282 107 146 56 384 146 530 201 146 55
281 106 300 113 19 8 73 28 120 46 47 17 101 38 120 45 19 8 141 53 270 100
129 48 287 106 350 130 63 24 140 51 170 60 30 9 64 20 75 25 11 5 47 18 80
29 69 23 452 156 505 175 126 47 258 99 275 110 11 7 33 16 49 20 16 4 58 20
92 37 35 16 70 29 79 29 9 0 18 7 21 15 4 8 10 13 14 10 9 -5 187 51 205 65 6
4 27 10 47 14 21 4 40 11 43 16 8 13 -25 26 -34 13 -13 -19 -69 -35 -87 -25
-14 8 -25 5 -47 -14 -33 -28 -45 -30 -53 -9 -10 25 -23 17 -21 -12 2 -25 -2
-28 -27 -28 -16 0 -31 6 -34 13 -2 7 2 10 12 6 27 -10 15 31 -22 78 -9 11 -10
18 -2 23 6 3 9 3 8 -2 -5 -15 12 -13 39 4 19 13 28 14 31 5 2 -6 10 -12 17
-12 7 0 16 -6 19 -12 4 -8 8 -9 11 -3 3 6 23 9 45 7 43 -4 44 -2 19 53 -5 11
-10 47 -11 80 -3 52 -6 61 -27 70 -22 9 -23 14 -17 71 4 34 3 69 0 78 -8 22
-76 56 -110 56 -18 0 -38 12 -60 35 -18 19 -39 35 -47 35 -8 0 -20 7 -27 15
-7 8 -15 13 -19 10 -4 -2 -16 19 -26 48 -21 62 -32 76 -41 54 -8 -22 -50 -22
-63 1 -7 13 -22 17 -60 16 l-51 0 0 33 c0 32 -12 43 -25 23 -9 -14 -95 -10
-95 5 0 10 -15 12 -60 8 -47 -5 -64 -2 -78 10 -10 9 -27 14 -39 11 -11 -3 -24
-1 -27 5 -4 6 -15 11 -24 11 -22 0 -104 41 -125 62 -10 9 -17 23 -18 30 0 7
-5 2 -11 -12 -9 -21 -12 -22 -15 -7 -3 10 -14 17 -29 17 -16 0 -24 -6 -24 -17
0 -14 -2 -15 -9 -4 -6 9 -21 12 -45 9 -20 -2 -36 0 -36 5 0 5 -7 7 -15 4 -8
-4 -17 -2 -20 3 -4 6 -23 10 -44 10 -22 0 -44 6 -51 15 -14 17 -60 21 -60 5 0
-6 -11 -16 -25 -22 -20 -9 -28 -8 -42 4 -10 9 -34 18 -53 21 -40 5 -88 21
-145 48 -22 11 -48 19 -57 19 -9 0 -23 6 -30 13 -7 7 -15 14 -18 14 -30 2 -47
16 -43 37 3 16 0 23 -11 23 -9 0 -16 -9 -16 -19 0 -10 -1 -18 -3 -18 -9 0 -93
44 -97 51 -7 10 -114 30 -157 29 -17 0 -34 4 -38 10 -10 15 -55 12 -61 -5 -4
-8 -11 -15 -16 -15 -23 0 -159 72 -170 89 -11 17 -13 18 -23 4 -11 -14 -19
-12 -76 16 -35 18 -68 37 -73 42 -6 5 -17 9 -26 9 -17 0 -71 56 -62 65 5 5
-13 7 -24 3 -3 -2 -10 5 -15 15 -7 12 -17 15 -34 11 -15 -4 -26 0 -32 9 -4 8
-18 19 -30 26 -13 6 -23 18 -23 26 0 8 -9 15 -21 15 -11 0 -46 12 -77 27 -31
14 -65 25 -74 24 -9 -1 -41 9 -71 23 -44 21 -59 24 -86 16 -18 -5 -39 -6 -47
-3 -8 3 -21 0 -29 -7 -19 -16 -71 3 -80 29 -3 9 -13 26 -23 39 -16 21 -20 22
-31 8z m83 -111 c19 -15 14 -35 -9 -35 -16 0 -38 34 -28 44 9 9 16 7 37 -9z
m1639 -625 c3 -11 1 -18 -4 -14 -5 3 -9 12 -9 20 0 20 7 17 13 -6z m27 -44 c0
-3 -4 -8 -10 -11 -5 -3 -10 -1 -10 4 0 6 5 11 10 11 6 0 10 -2 10 -4z m24 -42
c3 -8 2 -12 -4 -9 -6 3 -10 10 -10 16 0 14 7 11 14 -7z m446 -127 c-1 -28 -29
-49 -54 -43 -27 7 -36 26 -13 26 7 0 20 9 30 20 18 21 37 19 37 -3z m345 3 c3
-5 1 -10 -4 -10 -6 0 -11 5 -11 10 0 6 2 10 4 10 3 0 8 -4 11 -10z m-45 -192
c0 -6 -6 -5 -15 2 -8 7 -15 14 -15 16 0 2 7 1 15 -2 8 -4 15 -11 15 -16z m260
-28 c0 -5 -4 -10 -10 -10 -5 0 -10 5 -10 10 0 6 5 10 10 10 6 0 10 -4 10 -10z
m-680 -10 c0 -5 -5 -10 -11 -10 -5 0 -7 5 -4 10 3 6 8 10 11 10 2 0 4 -4 4
-10z m20 -210 c0 -5 -4 -10 -10 -10 -5 0 -10 5 -10 10 0 6 5 10 10 10 6 0 10
-4 10 -10z m-80 -30 c0 -5 -4 -10 -10 -10 -5 0 -10 5 -10 10 0 6 5 10 10 10 6
0 10 -4 10 -10z m-57 -37 c-7 -2 -21 -2 -30 0 -10 3 -4 5 12 5 17 0 24 -2 18
-5z m-1227 -130 c1 -15 -4 -21 -17 -20 -10 1 -16 4 -13 8 2 4 -3 15 -12 24
-16 15 -15 16 12 13 22 -2 29 -8 30 -25z m2394 -8 c18 -22 3 -35 -40 -35 -53
0 -69 -8 -63 -31 6 -21 -12 -27 -20 -6 -3 7 -6 5 -6 -5 -1 -22 -21 -24 -21 -3
0 8 -7 15 -16 15 -9 0 -14 6 -11 13 2 6 10 11 17 9 6 -1 14 6 17 16 4 17 9 18
46 9 36 -9 42 -8 56 11 19 25 25 27 41 7z m-239 -34 c8 12 10 12 18 -1 7 -10
6 -20 -3 -30 -7 -8 -11 -21 -9 -27 3 -9 -6 -13 -26 -13 -17 0 -31 5 -31 10 0
6 9 10 20 10 13 0 18 5 14 15 -4 8 -10 15 -15 15 -20 0 -36 24 -25 37 9 9 15
7 29 -9 15 -18 20 -20 28 -7z m54 -41 c3 -5 1 -10 -4 -10 -6 0 -11 5 -11 10 0
6 2 10 4 10 3 0 8 -4 11 -10z m-155 -30 c0 -5 -7 -10 -15 -10 -8 0 -15 5 -15
10 0 6 7 10 15 10 8 0 15 -4 15 -10z m-306 -18 c12 -20 -7 -52 -30 -52 -17 0
-24 -6 -24 -20 0 -13 5 -18 15 -14 9 4 16 -3 21 -21 7 -30 5 -34 -25 -40 -16
-3 -24 2 -31 19 -11 30 -49 40 -71 20 -20 -18 -30 -7 -22 24 4 17 10 20 28 16
19 -5 25 0 36 30 11 30 18 36 48 39 20 2 39 4 43 5 4 1 9 -2 12 -6z m176 -35
c0 -6 -9 -2 -20 8 -11 10 -17 22 -13 28 6 10 33 -19 33 -36z m60 -1 c0 -5 -7
-1 -15 10 -8 10 -14 24 -14 29 0 6 6 1 14 -9 8 -11 15 -24 15 -30z m-401 25
c8 -5 9 -11 3 -15 -5 -3 -15 1 -22 9 -14 16 -3 20 19 6z m516 -1 c3 -5 1 -10
-4 -10 -6 0 -11 5 -11 10 0 6 2 10 4 10 3 0 8 -4 11 -10z m-239 -27 c-10 -10
-19 5 -10 18 6 11 8 11 12 0 2 -7 1 -15 -2 -18z m-436 -14 c0 -14 -16 -11 -29
5 -10 12 -8 13 8 9 12 -3 21 -9 21 -14z m415 -28 c5 -17 4 -22 -6 -19 -8 3
-15 18 -17 34 -4 33 11 24 23 -15z m-1510 19 c-3 -5 -10 -10 -16 -10 -5 0 -9
5 -9 10 0 6 7 10 16 10 8 0 12 -4 9 -10z m1452 4 c-3 -3 -12 -4 -19 -1 -8 3
-5 6 6 6 11 1 17 -2 13 -5z m-211 -64 c21 0 30 -30 13 -42 -10 -7 -8 -8 9 -3
13 4 22 2 22 -4 0 -14 -45 -25 -61 -15 -8 5 -11 2 -7 -8 5 -11 0 -14 -18 -10
-28 5 -27 3 -12 54 8 27 16 37 26 33 7 -3 20 -5 28 -5z m-450 -39 c-3 -4 1
-25 9 -47 8 -21 14 -33 15 -25 0 9 9 12 30 9 21 -3 30 0 33 11 3 9 5 2 6 -16
0 -17 6 -35 12 -39 8 -4 7 -10 -1 -18 -8 -8 -15 -7 -24 7 -18 23 -29 22 -21
-4 5 -15 2 -22 -14 -26 -12 -3 -21 -9 -21 -14 0 -15 -28 -10 -34 7 -3 9 -6 29
-6 45 0 21 -5 29 -17 29 -17 1 -17 2 0 15 12 8 18 24 17 42 -3 40 -1 45 10 38
6 -4 8 -10 6 -14z m-62 -6 c-4 -8 -11 -12 -16 -9 -6 4 -5 10 3 15 19 12 19 11
13 -6z m186 -52 c0 -6 6 -14 13 -17 6 -3 3 -5 -8 -3 -12 1 -21 11 -23 25 -2
12 -8 22 -13 22 -6 0 -7 5 -4 11 8 11 34 -18 35 -38z m140 17 c-9 -6 -6 -10 9
-15 11 -3 21 -11 21 -17 0 -5 -7 -7 -16 -4 -9 4 -23 1 -30 -5 -11 -9 -14 -8
-14 5 0 23 22 56 33 49 5 -3 4 -9 -3 -13z m-330 -26 c13 -34 13 -36 -6 -32
-10 2 -18 15 -20 31 -3 34 13 35 26 1z m390 6 c0 -5 -4 -10 -10 -10 -5 0 -10
5 -10 10 0 6 5 10 10 10 6 0 10 -4 10 -10z m-590 -15 c0 -8 3 -14 8 -14 28 5
30 -2 15 -47 -14 -43 -36 -64 -50 -50 -3 3 0 13 7 21 10 12 10 19 2 27 -7 7
-12 9 -12 5 0 -4 -6 -2 -14 5 -11 11 -10 17 8 40 24 31 36 35 36 13z m430 -25
c0 -5 -4 -10 -9 -10 -6 0 -13 5 -16 10 -3 6 1 10 9 10 9 0 16 -4 16 -10z
m-500 -25 c0 -19 -11 -19 -36 0 -18 14 -18 14 9 15 17 0 27 -5 27 -15z m557
-31 c-3 -3 -12 -4 -19 -1 -8 3 -5 6 6 6 11 1 17 -2 13 -5z m-637 -53 c0 -8 7
-23 16 -33 16 -16 16 -18 0 -24 -22 -8 -43 11 -48 44 -3 22 0 28 14 28 10 0
18 -7 18 -15z m-126 -105 c36 -15 46 -24 46 -43 0 -12 -4 -23 -9 -23 -5 0 -23
-3 -40 -6 -20 -4 -31 -3 -31 5 0 6 9 11 20 11 29 0 14 28 -18 32 -33 4 -64 55
-48 80 9 15 11 14 22 -10 7 -18 27 -33 58 -46z m-79 -39 c4 -18 9 -40 11 -49
3 -10 1 -18 -4 -18 -15 0 -32 50 -26 74 4 18 1 25 -15 29 -12 3 -21 10 -21 16
0 25 49 -22 55 -52z m-115 43 c0 -5 -4 -10 -10 -10 -5 0 -10 5 -10 10 0 6 5
10 10 10 6 0 10 -4 10 -10z m-83 -65 c-7 -14 -15 -25 -19 -25 -4 0 -2 11 4 25
6 14 15 25 19 25 4 0 2 -11 -4 -25z m-187 -35 c0 -5 -4 -10 -10 -10 -5 0 -10
5 -10 10 0 6 5 10 10 10 6 0 10 -4 10 -10z m245 -49 c-3 -5 -14 -7 -24 -4 -24
6 -36 33 -16 33 8 0 15 8 15 18 1 12 5 9 16 -11 8 -15 12 -31 9 -36z m-501
-56 c-4 -8 -8 -15 -10 -15 -2 0 -4 7 -4 15 0 8 4 15 10 15 5 0 7 -7 4 -15z
m-444 -30 c0 -9 6 -12 18 -8 12 4 14 3 7 -5 -13 -15 -55 -4 -55 14 0 8 7 14
15 14 8 0 15 -7 15 -15z m470 -1 c0 -8 -4 -12 -10 -9 -5 3 -10 10 -10 16 0 5
5 9 10 9 6 0 10 -7 10 -16z m-350 -55 c0 -5 -4 -9 -10 -9 -5 0 -10 7 -10 16 0
8 5 12 10 9 6 -3 10 -10 10 -16z m-22 -64 c-3 -3 -9 2 -12 12 -6 14 -5 15 5 6
7 -7 10 -15 7 -18z m-103 5 c3 -5 1 -10 -4 -10 -6 0 -11 5 -11 10 0 6 2 10 4
10 3 0 8 -4 11 -10z m65 -10 c0 -13 -20 -13 -40 0 -12 8 -9 10 13 10 15 0 27
-4 27 -10z m100 -5 c0 -18 -26 -20 -36 -3 -4 7 -3 8 4 4 7 -4 12 -2 12 3 0 6
5 11 10 11 6 0 10 -7 10 -15z"/>
<path d="M2461 3204 c0 -11 3 -14 6 -6 3 7 2 16 -1 19 -3 4 -6 -2 -5 -13z"/>
<path d="M7122 3960 c-23 -16 -48 -40 -57 -54 -19 -28 -53 -40 -72 -24 -9 7
-13 7 -13 -1 0 -6 -7 -11 -15 -11 -8 0 -15 -4 -15 -8 0 -5 -11 -14 -25 -20
-14 -6 -25 -18 -25 -26 0 -7 -6 -16 -14 -19 -19 -8 -28 -47 -10 -47 9 0 14
-12 14 -35 0 -19 6 -39 13 -46 26 -24 -19 -678 -49 -708 -2 -2 -4 7 -4 20 0
19 -2 21 -10 9 -14 -22 -12 -60 3 -55 9 4 11 -17 9 -87 -5 -155 -3 -150 -34
-97 -50 82 -97 110 -149 89 -16 -7 -37 -9 -46 -5 -27 12 -146 5 -163 -9 -8 -7
-36 -23 -61 -35 -45 -22 -82 -61 -58 -61 8 0 8 -4 -1 -15 -7 -8 -10 -29 -7
-47 4 -28 -1 -38 -30 -65 -20 -18 -39 -33 -43 -33 -29 0 -41 -140 -26 -285 5
-38 4 -66 0 -62 -5 4 -9 18 -9 30 0 14 -6 22 -16 21 -13 -1 -18 13 -23 69 -4
39 -3 73 1 76 8 6 10 16 20 93 l5 47 -35 -1 c-61 -2 -66 9 -66 140 0 88 -3
125 -15 147 -9 17 -16 41 -17 55 -1 30 -17 73 -19 50 -2 -32 -18 15 -25 74 -5
45 -11 59 -26 63 -10 3 -16 9 -13 14 3 5 -17 9 -45 9 -46 0 -49 1 -47 24 2 14
-3 27 -10 30 -9 4 -13 -2 -11 -17 l2 -22 -300 2 c-194 1 -284 -1 -255 -7 25
-5 138 -9 251 -9 255 -1 334 -8 317 -28 -8 -10 -8 -38 1 -116 7 -56 15 -111
17 -122 17 -68 32 -171 26 -177 -4 -4 -81 2 -172 12 -91 10 -235 23 -320 29
-85 6 -170 13 -187 17 -30 6 -33 4 -33 -18 l0 -24 293 -13 c268 -11 413 -23
426 -36 2 -3 0 -9 -5 -15 -5 -5 -50 -3 -114 5 -58 8 -216 18 -352 21 l-248 7
0 -85 c0 -71 -3 -89 -20 -108 -11 -13 -20 -18 -20 -12 0 6 7 17 15 26 9 8 15
33 15 56 0 37 -2 41 -20 35 -20 -6 -28 9 -11 19 5 3 8 19 7 36 -1 16 1 30 6
30 4 0 8 17 8 38 0 34 -3 38 -22 38 -16 -1 -23 4 -22 17 1 10 -5 17 -17 17
-22 0 -24 11 -7 28 9 9 6 16 -12 32 -13 11 -27 20 -33 20 -5 0 -4 6 2 14 21
26 -13 64 -64 72 -27 4 -52 15 -66 30 l-22 24 24 0 24 1 -22 18 c-13 11 -23
22 -23 25 0 3 10 6 23 6 19 0 17 3 -10 16 -22 11 -42 14 -60 9 -30 -9 -41 -11
-60 -13 -7 -1 -13 -7 -13 -12 0 -6 7 -10 16 -8 10 2 19 -3 22 -11 4 -11 -5
-13 -47 -7 -28 4 -51 3 -51 -2 0 -5 -17 -17 -37 -26 -21 -10 -47 -32 -59 -49
-11 -18 -28 -31 -37 -31 -9 1 -19 -7 -22 -17 -4 -11 -11 -19 -16 -19 -5 0 -9
-15 -10 -32 0 -18 -3 -27 -6 -20 -10 26 -43 -57 -43 -108 0 -37 -4 -50 -14
-50 -8 0 -18 -5 -21 -11 -4 -6 -1 -10 6 -8 29 3 35 -2 33 -31 -1 -17 2 -33 7
-36 5 -3 8 -24 8 -47 -1 -23 -4 -32 -6 -19 -2 12 -6 22 -9 22 -10 0 -50 -27
-79 -52 -16 -16 -33 -28 -37 -28 -5 0 -8 -9 -8 -20 0 -11 -4 -20 -9 -20 -5 0
-12 -16 -15 -35 -6 -29 -11 -35 -31 -35 -16 0 -25 6 -25 15 0 8 -4 15 -10 15
-5 0 -10 -7 -10 -15 0 -8 5 -15 10 -15 6 0 15 -11 20 -25 7 -19 17 -25 39 -25
23 0 30 5 36 28 l7 27 10 -29 c7 -19 7 -40 -1 -66 -14 -46 -14 -80 -1 -80 6 0
10 10 10 23 0 12 6 29 13 37 13 16 67 45 79 42 4 -1 5 5 2 12 -3 8 -1 24 6 35
9 18 8 21 -11 21 -21 0 -22 1 -4 20 10 11 26 20 37 20 22 0 22 3 3 -51 -16
-43 -13 -75 4 -64 5 3 11 -5 13 -17 4 -28 171 -158 204 -158 12 0 74 25 136
55 62 30 119 55 125 55 7 0 13 10 13 23 0 13 4 27 8 33 5 5 14 35 21 67 8 37
19 61 31 67 11 6 66 12 122 15 57 3 211 12 343 20 246 15 322 18 314 11 -2 -2
-168 -14 -369 -26 -201 -13 -367 -24 -369 -26 -12 -11 20 -11 194 2 457 32
537 36 545 28 5 -5 6 -37 3 -71 l-6 -63 -51 -1 c-28 0 -60 -2 -71 -4 -11 -3
-49 -7 -85 -10 -145 -11 -226 -21 -236 -27 -6 -4 -62 -8 -123 -9 -61 -1 -114
-6 -117 -10 -8 -13 -52 -11 -56 3 -6 16 -48 -22 -48 -43 0 -24 61 -61 77 -47
27 22 113 -18 113 -52 0 -24 8 -25 31 -4 24 21 110 20 153 -1 17 -9 54 -19 81
-22 32 -4 59 -14 75 -28 34 -31 127 -85 147 -85 9 0 25 -8 35 -17 15 -14 21
-15 27 -4 12 19 45 9 49 -14 5 -27 66 -65 106 -65 19 0 49 -11 70 -25 43 -29
156 -49 203 -36 30 9 30 8 41 -38 7 -29 7 -50 1 -56 -12 -12 -143 -44 -166
-41 -9 2 -19 9 -21 16 -3 8 0 10 7 6 6 -4 31 -4 54 0 40 7 41 7 15 15 -15 4
-45 10 -66 12 -55 8 -93 25 -126 55 l-29 27 14 -25 c21 -38 41 -60 49 -55 4 3
10 -1 13 -9 4 -9 14 -12 26 -9 15 4 21 1 21 -10 0 -18 -21 -25 -65 -23 -27 1
-30 5 -31 34 -1 20 -9 39 -24 52 -29 25 -43 22 -44 -11 -2 -31 -60 -105 -89
-113 -34 -9 -37 -8 -37 19 0 26 -4 28 -61 25 -36 -1 -66 19 -40 28 9 3 8 9 -5
23 -10 12 -15 29 -12 48 l4 30 -33 -34 c-18 -19 -33 -36 -33 -39 0 -3 -11 -16
-24 -31 l-23 -25 -7 31 -6 32 -20 -24 c-11 -13 -24 -29 -30 -36 -5 -7 -10 -17
-10 -23 0 -5 -4 -10 -10 -10 -5 0 -6 -7 -3 -17 4 -11 3 -14 -5 -9 -7 4 -24 -2
-38 -13 -15 -12 -33 -21 -40 -21 -18 0 -18 44 -1 62 12 11 12 16 1 26 -18 17
-27 15 -58 -9 -14 -11 -26 -16 -26 -10 0 6 -11 11 -25 11 -14 0 -38 14 -58 33
-28 29 -43 35 -95 40 -38 4 -62 3 -62 -3 0 -6 -9 -10 -20 -10 -11 0 -20 -3
-20 -8 0 -10 38 -42 50 -42 6 0 10 -11 10 -24 0 -13 3 -31 6 -40 11 -28 -20
-17 -34 12 -12 26 -68 62 -97 62 -8 0 -15 6 -15 14 0 9 -18 15 -54 20 -30 3
-62 9 -71 12 -13 5 -15 2 -9 -20 4 -16 2 -26 -5 -26 -6 0 -11 5 -11 11 0 6 -7
17 -16 26 -14 14 -16 14 -21 -6 -6 -22 -46 -30 -58 -11 -8 12 -37 9 -48 -5 -6
-6 -10 -6 -14 3 -6 16 -21 15 -39 -2 -7 -8 -32 -17 -54 -21 -22 -4 -40 -10
-40 -14 0 -5 -46 -16 -102 -26 -86 -14 -122 -15 -216 -7 -77 7 -119 15 -131
26 -13 12 -92 46 -107 46 -1 0 -5 -8 -7 -17 -2 -10 -3 -5 -2 10 1 15 -2 30 -7
33 -4 3 -8 14 -8 25 0 12 -4 17 -11 13 -7 -4 -10 1 -7 12 2 11 -7 30 -19 44
-30 32 -29 71 3 156 26 71 62 119 98 130 24 8 48 27 128 106 31 31 72 66 90
79 54 38 61 48 62 92 1 39 3 42 31 45 24 3 28 1 18 -9 -19 -19 -16 -28 8 -22
11 3 18 11 15 19 -3 7 0 14 6 16 7 3 13 33 14 73 2 38 8 71 13 73 6 2 11 13
11 24 0 19 -4 20 -52 14 -29 -4 -69 -12 -88 -19 -52 -17 -182 -85 -206 -108
-24 -23 -42 -26 -24 -4 19 23 5 29 -27 12 -15 -9 -41 -18 -56 -22 -15 -3 -25
-10 -22 -15 6 -9 -10 -14 -42 -13 -7 1 -11 -3 -8 -7 4 -6 -28 -22 -130 -66
-16 -7 -43 -15 -60 -19 -16 -4 -38 -9 -47 -12 -10 -2 -18 1 -18 7 0 13 74 46
125 56 19 3 35 12 35 19 0 12 214 95 245 95 7 0 15 3 18 8 2 4 2 1 1 -5 -2 -7
0 -13 4 -13 12 1 118 80 106 80 -5 0 -19 -7 -30 -15 -23 -17 -38 -19 -28 -4 3
6 38 26 77 45 l71 34 -50 -5 c-58 -5 -227 -45 -234 -55 -3 -4 -21 -11 -40 -15
-30 -7 -52 -17 -131 -61 -10 -6 -16 -14 -13 -17 4 -4 -13 -15 -37 -26 -24 -10
-70 -31 -102 -46 -33 -14 -61 -24 -64 -22 -6 7 34 152 52 188 9 16 20 29 25
29 6 0 10 11 10 25 0 14 3 25 8 25 4 0 16 19 27 41 10 23 25 44 32 46 7 3 13
11 13 19 0 8 5 14 10 14 6 0 10 7 10 17 0 9 3 14 6 10 3 -3 16 3 28 14 19 19
40 32 123 77 14 8 22 16 19 19 -20 20 -282 -180 -298 -228 -2 -7 -9 -9 -16 -6
-15 10 29 98 71 140 29 29 31 36 28 89 -1 31 3 73 10 92 10 27 10 39 2 47 -11
11 0 53 17 69 3 3 6 12 8 20 5 25 46 80 60 80 6 0 12 5 12 10 0 6 7 10 15 10
8 0 15 5 15 10 0 6 8 10 18 10 10 0 29 17 42 40 25 39 40 50 40 29 0 -5 3 -8
8 -5 4 2 75 7 157 11 133 7 152 10 168 28 17 20 17 20 17 -1 0 -16 6 -22 23
-22 25 0 83 -46 80 -64 -2 -6 10 -17 26 -22 18 -7 31 -21 35 -38 4 -15 11 -33
17 -39 5 -7 15 -20 22 -29 11 -16 22 -16 112 -8 113 11 155 19 155 28 -1 4
-14 16 -30 27 -17 11 -75 53 -130 93 -55 39 -101 72 -104 72 -2 0 -29 24 -59
53 -31 28 -77 70 -103 92 -63 53 -76 66 -70 72 6 7 35 -14 94 -68 27 -24 66
-57 87 -74 21 -16 43 -34 49 -40 13 -12 76 -53 129 -85 21 -12 43 -27 50 -33
19 -18 75 -57 82 -57 3 0 23 -12 45 -26 l40 -27 232 14 c151 8 222 15 204 20
-16 5 -33 14 -37 21 -7 12 -21 14 -102 17 -30 1 -39 6 -47 27 -6 14 -14 22
-20 19 -14 -9 -13 8 2 23 9 9 5 12 -20 12 -18 0 -32 4 -32 9 0 5 -9 11 -20 14
-13 3 -20 0 -20 -9 0 -8 -9 -14 -20 -14 -11 0 -20 6 -20 13 0 19 -34 37 -51
26 -19 -12 -69 -11 -69 1 0 6 9 10 21 10 18 0 20 5 17 42 -2 33 -8 44 -22 46
-10 2 -23 -2 -27 -10 -7 -11 -11 -10 -19 2 -9 13 -10 13 -10 0 0 -13 -2 -13
-9 -1 -8 12 -14 13 -36 3 -14 -7 -50 -12 -79 -12 -35 0 -58 -5 -66 -15 -7 -8
-16 -12 -21 -9 -12 7 -11 44 1 44 6 0 10 7 10 16 0 12 7 15 25 12 14 -3 28 -2
31 3 2 4 12 6 22 2 13 -4 12 -2 -3 10 -11 8 -49 18 -85 22 -81 9 -93 14 -76
37 9 13 20 15 54 8 23 -4 42 -3 42 1 0 5 7 9 15 9 8 0 15 7 15 15 0 8 5 15 10
15 6 0 10 -7 10 -16 0 -8 16 -22 35 -30 19 -8 35 -16 35 -19 0 -3 -3 -4 -7 -3
-5 2 -10 -1 -13 -7 -3 -6 16 -11 44 -13 45 -3 48 -2 43 17 -3 12 -1 21 5 21
14 0 38 27 38 43 0 8 -7 17 -15 21 -19 7 -19 23 0 60 18 35 19 28 -10 60 -28
31 -54 33 -83 7 -15 -12 -22 -30 -22 -55 0 -27 -4 -36 -17 -38 -10 0 -31 -3
-48 -4 -53 -6 -88 -4 -101 7 -14 12 -81 2 -90 -13 -4 -6 -1 -14 6 -18 22 -14
2 -26 -46 -29 -26 -1 -51 -4 -56 -7 -4 -3 -8 0 -8 5 0 6 11 11 24 11 13 0 29
7 36 15 9 10 9 15 1 15 -6 0 -11 -5 -11 -11 0 -8 -5 -8 -15 1 -10 9 -15 9 -15
1 0 -6 -13 -11 -28 -11 -15 0 -34 -6 -40 -12 -10 -10 -15 -10 -22 2 -12 20
-179 30 -311 20 -54 -4 -117 -4 -140 1 -41 8 -78 6 -186 -7 -42 -5 -42 -5 -22
-25 10 -10 19 -23 19 -28 0 -5 10 -12 23 -15 22 -6 22 -7 2 -18 -24 -15 -85
-38 -225 -85 -160 -54 -322 -112 -355 -128 -33 -16 -181 -73 -285 -109 -36
-13 -123 -45 -195 -71 -71 -26 -166 -60 -210 -75 -176 -61 -502 -181 -531
-195 -18 -8 -37 -15 -43 -15 -6 0 -25 -6 -43 -14 -40 -18 -243 -96 -278 -107
-14 -4 -47 -16 -75 -27 -27 -11 -160 -61 -295 -112 -368 -138 -921 -349 -957
-366 -17 -8 -34 -14 -37 -14 -4 0 -43 -14 -86 -31 l-80 -30 0 -1070 0 -1069
839 0 c650 1 841 3 844 13 4 9 6 9 6 0 1 -10 114 -12 495 -13 l493 0 13 92
c17 125 63 410 94 588 14 80 26 148 26 151 0 4 9 9 19 12 18 4 19 2 6 -39 -7
-24 -10 -44 -7 -44 3 0 1 -5 -6 -12 -7 -7 -12 -28 -12 -47 0 -20 -5 -56 -12
-81 -6 -25 -10 -55 -9 -67 0 -13 -4 -23 -10 -23 -5 0 -7 -5 -4 -10 11 -17 -6
-124 -17 -109 -7 10 -8 1 -4 -26 3 -23 2 -34 -3 -27 -5 9 -10 -6 -14 -40 -6
-52 -32 -236 -42 -290 l-5 -28 180 0 c99 0 180 3 180 8 1 4 3 70 6 147 6 154
16 310 38 575 9 96 16 184 16 195 0 11 3 74 6 140 6 151 10 305 7 305 -1 0 -9
-7 -18 -16 -9 -9 -19 -13 -23 -10 -3 4 -1 11 6 15 7 4 16 33 19 64 6 54 5 57
-17 57 -20 0 -22 4 -16 31 3 17 6 35 6 40 0 19 19 8 23 -13 3 -13 4 13 3 56
-1 54 -5 81 -13 84 -9 2 -13 -8 -13 -32 0 -19 -4 -38 -10 -41 -5 -3 -10 -15
-10 -26 0 -10 -4 -19 -10 -19 -5 0 -7 25 -3 64 7 76 -10 123 -21 60 -4 -22
-13 -46 -20 -54 -16 -19 -46 -146 -46 -196 0 -25 -3 -34 -9 -26 -6 9 -10 1
-15 -25 -3 -21 -9 -49 -13 -62 -4 -17 -3 -22 6 -17 8 6 10 -4 5 -36 -4 -24
-10 -47 -14 -51 -4 -5 -6 4 -3 20 l4 28 -15 -31 c-42 -91 -29 -1 38 281 61
255 68 289 57 312 -8 18 -19 23 -46 23 -39 0 -65 18 -65 44 0 9 -4 16 -10 16
-5 0 -10 11 -10 25 0 24 -1 24 -17 7 -10 -10 -27 -35 -38 -57 -11 -22 -23 -41
-27 -43 -5 -2 -8 -10 -8 -18 0 -8 -6 -17 -14 -20 -8 -3 -18 -18 -21 -34 -3
-16 -15 -38 -26 -51 -10 -12 -19 -27 -19 -34 0 -6 -8 -20 -18 -31 -10 -10 -32
-46 -49 -79 -18 -33 -37 -59 -42 -58 -6 2 -11 -9 -11 -25 -1 -33 -19 -57 -44
-57 -27 0 -32 -22 -7 -30 20 -6 20 -8 5 -31 -12 -17 -22 -23 -35 -19 -23 8
-26 -13 -4 -21 12 -5 13 -9 4 -21 -8 -8 -15 -10 -18 -4 -4 6 -12 6 -21 1 -11
-7 -11 -11 -1 -24 16 -19 6 -50 -14 -43 -9 4 -12 1 -9 -7 3 -8 -6 -23 -20 -34
-16 -12 -26 -30 -26 -46 0 -14 -4 -26 -9 -26 -5 0 -7 -8 -4 -19 3 -14 -2 -20
-22 -25 -25 -6 -27 -10 -20 -43 6 -33 5 -35 -15 -30 -17 4 -20 2 -15 -14 4
-12 2 -19 -7 -19 -10 0 -9 -3 2 -10 12 -8 10 -10 -10 -10 -18 0 -21 -3 -11 -9
17 -11 6 -31 -19 -31 -16 0 -35 -25 -32 -42 1 -5 -5 -8 -14 -8 -12 0 -14 -3
-6 -13 7 -8 7 -17 -2 -30 -7 -9 -11 -29 -9 -45 4 -22 2 -24 -7 -12 -10 12 -11
11 -7 -7 4 -18 1 -23 -16 -23 -18 0 -19 -2 -7 -10 13 -8 13 -10 -2 -10 -11 0
-15 -5 -12 -14 3 -8 -3 -19 -15 -26 -27 -14 -27 -28 2 -33 20 -4 19 -4 -4 -6
-20 -1 -29 -8 -33 -26 -5 -19 -15 -27 -39 -32 -31 -7 -31 -7 -7 -14 18 -5 20
-7 6 -8 -15 -1 -16 -4 -6 -16 6 -8 9 -19 5 -25 -9 -14 -25 -13 -20 3 3 6 -4
18 -16 25 -24 15 -37 9 -21 -11 9 -10 2 -13 -38 -11 -26 0 -54 -3 -62 -7 -7
-5 10 -6 40 -3 34 4 52 2 52 -5 0 -6 9 -11 19 -11 14 0 19 -6 18 -20 -1 -11
-8 -20 -17 -20 -8 0 -22 -5 -30 -11 -12 -8 -11 -9 5 -7 28 4 26 -24 -3 -38
-15 -7 -19 -13 -11 -16 8 -3 10 -11 5 -24 -6 -12 -10 -15 -13 -6 -3 6 -8 10
-12 7 -5 -2 -7 7 -5 20 2 19 -2 25 -17 25 -13 0 -18 -4 -13 -12 4 -7 3 -8 -4
-4 -7 4 -12 2 -12 -3 0 -18 -18 -12 -51 17 l-32 28 27 27 c14 14 26 32 26 39
0 7 9 27 20 43 11 17 20 25 20 20 0 -6 9 -11 20 -11 27 0 25 5 -5 16 -35 13
-31 28 13 47 26 11 33 17 22 22 -18 7 -20 28 -4 39 6 4 14 16 18 27 5 13 10
15 13 8 3 -7 9 -13 15 -13 6 0 5 6 -2 15 -10 13 -10 19 4 33 9 10 16 24 16 31
0 19 31 75 47 84 7 5 11 12 8 18 -4 5 2 9 12 10 17 0 17 1 -1 8 -17 7 -17 9 8
36 18 19 26 37 23 52 -2 12 0 20 5 17 5 -3 12 3 15 15 3 12 10 21 15 21 5 0 6
5 3 11 -4 6 2 19 14 30 23 21 27 39 10 39 -5 0 -7 5 -4 10 4 6 10 8 15 5 15
-9 41 26 35 46 -4 11 -3 19 2 18 30 -5 35 2 19 27 -13 18 -14 25 -4 23 28 -3
38 2 38 20 0 10 7 24 15 31 8 7 15 18 15 26 0 7 8 17 17 23 10 5 15 12 11 16
-3 4 2 15 13 26 10 10 19 25 19 31 0 7 -7 2 -16 -10 -18 -26 -34 -29 -34 -6 0
24 -157 9 -187 -19 -12 -11 -20 -24 -17 -28 3 -5 1 -9 -4 -9 -5 0 -15 -17 -21
-38 -11 -33 -17 -38 -37 -34 -13 2 -24 8 -24 13 0 5 -4 9 -10 9 -5 0 -10 -9
-10 -20 0 -16 -7 -20 -30 -20 -34 0 -37 -5 -15 -27 14 -14 17 -13 33 4 17 20
52 27 52 11 0 -4 -5 -8 -11 -8 -7 0 -10 -15 -7 -40 3 -34 1 -39 -13 -35 -11 4
-19 -2 -23 -17 -3 -13 -21 -33 -40 -46 -18 -13 -33 -31 -32 -40 0 -9 -6 -17
-14 -17 -8 0 -15 -9 -15 -20 0 -11 -5 -19 -11 -18 -7 1 -10 -6 -7 -17 4 -13
-1 -22 -13 -27 -11 -5 -19 -15 -19 -23 0 -8 -7 -16 -15 -16 -8 -1 -19 -2 -23
-3 -4 0 -3 -9 2 -19 7 -14 5 -21 -11 -31 -11 -7 -17 -18 -14 -26 6 -15 -20
-29 -29 -15 -11 18 -22 10 -18 -12 5 -30 -26 -52 -45 -32 -11 12 -8 14 15 15
21 1 23 3 8 6 -11 3 -25 9 -31 14 -8 7 -12 1 -12 -16 0 -29 28 -48 54 -38 15
6 15 5 0 -20 -20 -29 -42 -41 -73 -38 -13 1 -23 -2 -23 -8 0 -6 9 -11 20 -11
11 0 20 -5 20 -11 0 -6 -10 -8 -22 -5 -13 3 -17 3 -10 0 14 -7 16 -44 2 -44
-5 0 -10 5 -10 11 0 6 -9 9 -20 6 -21 -5 -28 7 -10 18 13 8 13 45 0 45 -5 0
-10 -7 -10 -15 0 -8 -4 -15 -10 -15 -15 0 -12 40 3 41 6 1 22 2 34 2 14 0 19
5 16 13 -3 8 -13 14 -23 14 -11 0 -22 5 -26 11 -6 10 18 8 56 -4 3 -1 5 3 5 8
0 6 -4 9 -9 7 -5 -2 -6 4 -3 13 4 8 2 15 -3 15 -5 0 -6 8 -3 17 7 19 29 36 52
39 22 4 38 24 18 24 -9 0 -17 7 -17 15 0 8 7 15 15 15 9 0 15 10 16 28 1 16 3
20 6 10 2 -10 10 -18 18 -18 8 0 11 7 8 20 -3 12 4 28 23 45 15 14 24 28 21
32 -4 3 -16 -4 -27 -17 -11 -13 -20 -18 -20 -12 0 6 16 26 35 43 19 18 35 36
35 41 0 5 11 20 25 34 14 14 25 29 25 34 0 6 11 10 25 10 14 0 25 4 25 9 0 5
18 11 41 15 l41 6 -31 29 c-18 17 -27 32 -21 36 5 3 10 15 10 26 0 10 5 19 10
19 6 0 15 11 20 25 10 25 19 39 53 76 9 10 17 23 17 28 0 5 7 14 15 21 8 7 15
22 15 34 0 12 8 31 18 42 10 11 17 25 15 31 -2 6 5 14 17 18 11 3 27 20 35 36
9 16 20 29 25 29 6 0 10 9 10 20 0 18 11 25 33 21 5 -1 6 8 2 19 -5 16 -2 20
16 20 18 0 20 3 11 12 -17 17 -15 31 2 25 10 -4 13 -1 10 7 -3 8 3 20 13 27
10 8 26 29 34 47 15 31 64 93 122 152 15 15 27 32 27 37 0 5 9 15 20 23 11 8
20 19 20 25 0 5 26 38 58 72 32 35 67 78 78 98 10 19 24 35 31 35 7 0 13 7 13
15 0 8 7 15 15 15 8 0 15 4 15 9 0 5 16 26 35 45 19 20 35 40 35 45 0 5 15 14
33 20 26 10 29 14 17 22 -12 9 -12 12 -2 16 26 10 112 104 118 129 3 13 12 24
18 24 7 0 27 20 46 45 19 25 37 45 42 45 4 0 81 73 171 163 89 89 243 235 342
323 99 89 207 187 239 218 33 31 67 58 76 61 9 3 23 17 30 30 7 14 17 25 22
25 4 0 8 5 8 11 0 6 -9 9 -20 6 -11 -3 -20 -1 -20 3 0 5 -10 11 -22 13 -13 2
-2 5 24 6 50 1 98 -12 98 -28 0 -5 -41 -50 -90 -100 -49 -51 -90 -94 -90 -96
0 -3 -8 -13 -17 -24 -50 -52 -73 -80 -73 -85 0 -6 -31 -40 -187 -204 -40 -41
-73 -79 -73 -83 0 -4 -13 -21 -29 -38 -17 -18 -33 -41 -36 -52 -4 -10 -11 -19
-16 -19 -5 0 -9 -6 -9 -14 0 -7 -17 -35 -38 -62 -21 -27 -43 -60 -50 -74 -26
-51 -42 -75 -58 -87 -9 -6 -17 -27 -19 -45 -2 -25 -7 -32 -20 -30 -14 3 -17
-2 -13 -27 3 -17 1 -31 -4 -31 -4 0 -8 7 -8 16 0 14 -2 14 -15 0 -28 -28 -18
-38 33 -32 26 3 41 3 35 0 -14 -6 -18 -34 -5 -34 13 1 42 27 42 39 0 6 7 14
16 18 12 4 13 8 3 13 -10 7 -9 18 1 54 7 25 13 46 14 46 1 0 15 4 33 9 27 8
36 6 60 -15 18 -15 30 -20 34 -12 4 6 24 14 45 18 39 8 39 8 7 9 -30 1 -33 4
-33 31 0 17 -4 30 -10 30 -14 0 -12 32 4 53 12 16 15 16 29 2 9 -8 29 -15 45
-15 40 0 62 -9 62 -26 0 -19 22 -64 32 -64 4 0 8 6 8 14 0 8 5 18 10 21 13 8
5 -60 -14 -114 -9 -29 -10 -42 -2 -45 6 -2 4 -5 -6 -5 -20 -1 -42 -56 -39 -95
2 -20 -1 -26 -10 -21 -7 5 -10 4 -5 -3 11 -18 -5 -61 -25 -67 -10 -4 -19 -11
-19 -17 0 -7 23 -9 70 -4 63 5 70 4 80 -14 14 -26 5 -40 -26 -40 -25 0 -25 -1
-20 -72 3 -40 8 -131 11 -203 3 -71 8 -163 12 -202 6 -72 5 -73 -18 -73 -27 0
-59 31 -59 57 0 9 -2 14 -5 11 -3 -3 -3 -23 1 -45 5 -36 8 -39 34 -35 22 3 32
-2 46 -23 13 -20 14 -29 5 -34 -16 -10 2 -135 23 -164 42 -57 67 -99 62 -104
-8 -8 -54 48 -77 95 -12 24 -22 61 -22 83 0 21 -4 36 -8 33 -5 -3 -9 -19 -9
-36 0 -80 48 -158 128 -209 59 -37 34 -49 -34 -18 -48 22 -142 106 -136 122 1
5 -12 7 -30 5 l-33 -3 1 -172 c1 -169 2 -172 31 -235 17 -35 34 -74 38 -88 4
-14 32 -73 61 -131 30 -59 54 -111 54 -116 0 -8 47 -125 75 -188 7 -16 21 -52
31 -80 9 -27 29 -69 45 -92 16 -23 29 -46 29 -51 0 -5 18 -37 40 -70 22 -33
40 -63 40 -67 0 -5 11 -23 25 -40 13 -18 21 -35 18 -39 -3 -3 0 -12 7 -21 17
-20 290 -23 290 -2 -1 33 -69 262 -89 297 -5 9 -12 31 -16 50 -4 19 -13 39
-20 45 -14 11 -85 192 -85 216 0 9 -9 26 -20 39 -11 13 -20 27 -20 32 0 12
-45 127 -75 193 -33 72 -53 133 -59 185 -6 45 -6 45 9 18 16 -29 49 -37 83
-19 55 29 232 60 412 72 97 6 181 18 225 30 39 11 90 24 115 29 25 4 63 13 85
19 146 37 361 81 500 101 44 7 107 20 140 31 169 53 609 120 591 91 -4 -6 5
-5 20 3 15 8 39 12 53 9 15 -3 64 4 111 15 110 26 279 56 430 76 24 3 96 8
160 11 63 3 135 12 160 19 52 17 223 38 535 66 351 32 476 38 880 45 l380 6
145 -87 c163 -98 322 -196 330 -205 3 -3 59 -41 125 -84 66 -44 165 -111 220
-151 158 -113 204 -145 211 -145 4 0 13 -8 20 -17 9 -13 13 -14 14 -5 0 10 13
6 45 -12 l45 -27 0 625 c0 552 -2 625 -15 620 -8 -4 -15 -12 -15 -19 0 -7 -9
-15 -20 -18 -11 -3 -20 -1 -20 4 0 5 4 9 10 9 5 0 21 11 35 25 l25 26 0 214
c0 201 -1 215 -18 215 -10 0 -27 7 -38 15 -10 8 -40 15 -66 15 -26 0 -65 6
-85 14 -34 13 -79 21 -168 31 -16 1 -55 10 -85 19 -30 9 -90 16 -133 16 -53 0
-85 5 -101 15 -24 16 -52 12 -59 -8 -2 -7 -3 -5 -2 4 2 13 -9 18 -44 23 -25 4
-57 13 -70 20 -17 9 -36 11 -69 5 -32 -6 -57 -5 -87 6 -24 8 -87 19 -141 25
-147 16 -245 29 -279 35 -16 4 -66 10 -110 16 -44 5 -98 12 -120 15 -105 13
-121 15 -140 15 -58 -2 -70 0 -77 12 -5 10 -23 12 -63 9 -30 -2 -67 1 -82 7
-16 6 -74 15 -130 19 -94 7 -102 6 -107 -11 -3 -13 0 -17 10 -13 9 3 14 -1 14
-14 0 -11 -4 -20 -10 -20 -5 0 -10 -7 -10 -17 0 -9 -3 -13 -6 -10 -4 4 -7 30
-8 59 -1 47 -3 53 -21 51 -11 -1 -54 3 -95 8 -41 5 -97 12 -125 14 -68 7 -75
9 -113 29 -19 9 -46 16 -60 15 -25 -2 -69 5 -116 18 -17 5 -18 0 -12 -53 4
-33 2 -65 -3 -73 -13 -20 -19 19 -31 214 -5 88 -14 176 -20 195 -15 49 -17
329 -2 356 13 24 103 87 141 99 35 11 121 65 121 76 0 14 -19 11 -66 -13 -24
-12 -46 -19 -49 -16 -3 2 2 19 11 37 21 42 13 60 -22 53 -19 -3 -25 -1 -20 7
13 21 -21 11 -62 -19z m68 -16 c0 -18 -53 -74 -69 -74 -20 0 -11 24 21 57 35
36 48 41 48 17z m-79 -17 c-10 -9 -11 -8 -5 6 3 10 9 15 12 12 3 -3 0 -11 -7
-18z m-2281 -236 c0 -13 -9 -20 -30 -23 -38 -6 -42 -1 -22 23 21 25 52 25 52
0z m2217 -153 c-2 -13 -4 -5 -4 17 -1 22 1 32 4 23 2 -10 2 -28 0 -40z m113
-484 c0 -8 -4 -14 -10 -14 -5 0 -10 9 -10 21 0 11 5 17 10 14 6 -3 10 -13 10
-21z m67 -36 c-3 -7 -5 -2 -5 12 0 14 2 19 5 13 2 -7 2 -19 0 -25z m-2310 -14
c-3 -3 -12 -4 -19 -1 -8 3 -5 6 6 6 11 1 17 -2 13 -5z m2283 -4 c4 7 10 -5 14
-29 4 -27 11 -41 21 -41 8 0 15 -8 15 -17 0 -15 -2 -16 -10 -3 -9 13 -11 13
-20 0 -8 -12 -10 -11 -10 7 0 12 -4 23 -10 25 -5 2 -12 19 -15 38 -3 19 -2 29
1 21 5 -10 8 -10 14 -1z m-24 -67 c-9 -9 -13 -2 -20 37 l-7 35 17 -33 c9 -18
14 -35 10 -39z m304 63 c0 -3 -4 -8 -10 -11 -5 -3 -10 -1 -10 4 0 6 5 11 10
11 6 0 10 -2 10 -4z m-190 -15 c0 -5 3 -18 6 -28 6 -16 5 -16 -9 2 -19 23 -21
35 -7 35 6 0 10 -4 10 -9z m-173 -53 c-3 -8 -6 -5 -6 6 -1 11 2 17 5 13 3 -3
4 -12 1 -19z m233 -4 c0 -14 -4 -23 -9 -20 -5 3 -7 15 -4 26 7 28 13 25 13 -6z
m-20 -44 c5 0 11 -10 13 -22 4 -20 4 -20 6 4 1 30 21 49 21 21 1 -19 29 -75
30 -58 0 6 9 16 20 23 18 11 24 9 45 -12 14 -14 24 -35 24 -48 -1 -16 -3 -18
-6 -6 -6 25 -30 30 -36 7 -4 -15 -2 -19 9 -15 9 4 14 -2 14 -17 0 -16 -6 -23
-20 -23 -13 0 -19 5 -16 13 6 16 -3 43 -14 43 -14 0 -21 -32 -10 -45 5 -6 7
-15 3 -18 -3 -4 8 -7 25 -7 18 0 32 -5 32 -11 0 -6 -7 -9 -15 -5 -8 3 -15 1
-15 -5 0 -11 -29 -44 -31 -35 -1 3 -2 10 -3 15 0 5 -4 13 -8 17 -5 4 -8 16 -8
26 0 10 -4 18 -10 18 -5 0 -10 -4 -10 -9 0 -6 -13 -25 -30 -43 -16 -18 -30
-38 -30 -45 0 -7 -4 -13 -10 -13 -5 0 -10 16 -10 35 0 19 -4 35 -10 35 -5 0
-10 6 -10 14 0 9 -8 13 -22 10 -13 -2 -17 -2 -10 2 6 3 12 13 11 22 0 11 -2
13 -6 4 -4 -10 -8 -10 -21 0 -13 11 -14 10 -9 -14 6 -22 4 -26 -8 -22 -8 3
-12 11 -8 17 4 6 -2 8 -18 4 -13 -4 -30 -7 -36 -7 -7 0 -13 -7 -13 -15 0 -8
-4 -15 -9 -15 -11 0 -13 17 -10 70 1 19 2 59 2 88 1 33 4 47 10 40 7 -10 10
-10 14 0 7 17 26 15 19 -3 -3 -9 0 -15 8 -15 8 0 17 6 19 13 3 6 6 2 6 -10 1
-16 6 -21 16 -17 9 4 15 0 15 -9 0 -9 10 -17 22 -19 14 -2 24 -12 28 -28 8
-35 17 -14 26 60 6 58 8 62 16 38 6 -16 13 -28 18 -28z m66 36 c3 -8 4 -22 2
-31 -2 -12 -7 -7 -15 14 -6 18 -7 31 -2 31 5 0 12 -6 15 -14z m99 -7 c10 -15
2 -19 -23 -12 -12 3 -19 9 -16 14 7 12 31 11 39 -2z m254 -79 c14 -9 0 -69
-14 -64 -7 3 -16 0 -21 -7 -4 -7 -3 -14 4 -17 6 -2 9 -9 6 -17 -3 -7 -1 -23 6
-34 9 -17 8 -21 -5 -21 -8 0 -15 5 -15 12 0 9 -3 9 -12 0 -9 -9 -9 -15 -1 -23
13 -13 6 -42 -8 -33 -5 3 -7 10 -4 15 4 5 2 9 -3 9 -5 0 -7 14 -4 30 5 34 -11
40 -30 11 -13 -21 -38 -17 -38 6 0 8 5 11 10 8 6 -3 10 1 10 9 0 9 -7 16 -15
16 -10 0 -15 7 -13 18 3 19 -28 25 -49 9 -10 -7 -9 -14 2 -30 11 -18 11 -24 0
-34 -10 -9 -14 -7 -20 10 -4 12 -7 27 -6 34 3 22 -20 25 -26 4 -6 -24 -23 -28
-23 -6 0 21 37 57 44 42 2 -7 5 0 5 15 1 31 21 49 21 19 0 -11 5 -23 10 -26 6
-3 10 -1 10 5 0 8 9 10 25 6 38 -10 47 1 30 34 -19 37 -19 60 0 60 9 0 15 -9
15 -25 0 -14 5 -25 10 -25 6 0 10 -10 10 -23 0 -32 9 -39 28 -21 10 11 18 12
25 5 19 -19 27 -12 16 16 -6 16 -7 42 -2 63 l7 35 4 -40 c2 -22 7 -42 11 -45z
m-59 24 c0 -19 -4 -33 -8 -30 -8 5 -4 66 4 66 2 0 4 -16 4 -36z m697 4 c-3 -7
-5 -2 -5 12 0 14 2 19 5 13 2 -7 2 -19 0 -25z m-799 -3 c3 -18 2 -18 -10 -4
-8 9 -22 19 -33 22 -12 3 -8 5 10 4 21 -1 31 -8 33 -22z m242 22 c0 -2 -10
-12 -22 -23 l-23 -19 19 23 c18 21 26 27 26 19z m67 -49 c-3 -8 -6 -5 -6 6 -1
11 2 17 5 13 3 -3 4 -12 1 -19z m-4174 5 c-7 -2 -13 -11 -13 -19 0 -9 -4 -13
-10 -9 -14 9 0 35 19 34 10 0 11 -2 4 -6z m3794 -25 c-3 -7 -5 -2 -5 12 0 14
2 19 5 13 2 -7 2 -19 0 -25z m287 -24 c5 -15 2 -24 -10 -28 -23 -9 -37 3 -24
19 7 8 9 19 5 25 -3 5 -3 15 1 21 7 13 17 1 28 -37z m184 -3 c12 -21 22 -45
22 -52 -1 -8 -10 3 -20 23 -11 20 -24 40 -30 43 -12 7 -13 25 -2 25 5 0 18
-17 30 -39z m115 14 c-5 -13 -23 -22 -23 -11 0 15 14 35 21 31 4 -3 6 -12 2
-20z m555 -30 c-2 -12 -7 -7 -15 16 -12 30 -11 32 3 17 9 -8 14 -23 12 -33z
m456 10 c18 -27 22 -60 6 -50 -5 3 -10 15 -10 26 0 11 -7 22 -15 25 -8 4 -15
10 -15 15 0 17 18 9 34 -16z m-1252 -10 c0 -6 12 -15 27 -22 l26 -11 -29 -1
-29 -1 21 -23 c12 -13 22 -28 22 -34 0 -5 17 -9 38 -8 29 2 38 7 40 24 4 23
18 28 25 9 3 -10 7 -10 20 1 15 12 17 10 17 -15 1 -25 2 -27 11 -11 6 10 8 25
5 33 -7 19 2 18 22 -3 12 -12 13 -18 4 -21 -6 -2 -12 -14 -12 -27 0 -13 -5
-25 -10 -27 -10 -3 -17 -33 -19 -76 -2 -24 -21 -1 -22 26 -1 17 -3 21 -6 10
-2 -10 -9 -18 -14 -18 -5 0 -9 -11 -9 -24 0 -14 -4 -27 -9 -30 -5 -3 -6 15 -3
41 3 33 2 44 -7 39 -6 -4 -11 -22 -12 -39 0 -26 -2 -28 -8 -12 -5 11 -6 25 -4
30 2 6 -10 24 -27 40 l-31 30 10 -28 c14 -36 14 -37 -5 -37 -9 0 -13 -5 -9
-12 4 -7 -1 -4 -10 7 -9 11 -20 20 -25 20 -4 0 -12 3 -16 8 -4 4 5 7 20 7 33
0 31 23 -2 28 -13 2 -19 8 -15 18 3 8 -1 14 -9 14 -9 0 -14 12 -14 35 0 25 3
32 12 24 8 -7 12 -6 11 3 -1 33 4 49 14 46 6 -2 11 -8 11 -13z m78 -21 c0 -13
-4 -24 -10 -24 -5 0 -10 8 -10 18 0 10 -5 23 -11 29 -9 9 -7 10 10 6 14 -3 21
-13 21 -29z m296 -10 c4 -15 2 -30 -6 -37 -10 -9 -11 -7 -5 11 4 15 2 24 -9
28 -20 8 -21 24 -1 24 8 0 18 -12 21 -26z m514 -9 c13 -14 19 -25 14 -25 -8 1
-50 50 -41 50 2 0 14 -11 27 -25z m-1163 -7 c-3 -8 -6 -5 -6 6 -1 11 2 17 5
13 3 -3 4 -12 1 -19z m-370 -55 c-4 -3 -14 2 -22 13 -22 29 -18 37 7 14 12
-11 18 -23 15 -27z m980 33 c-4 -12 -47 -19 -47 -8 0 13 7 18 30 18 11 0 19
-5 17 -10z m917 -11 c15 -14 26 -29 24 -34 -2 -4 -18 7 -37 26 -39 38 -27 46
13 8z m-398 -1 c18 -15 12 -15 -28 1 -14 6 -19 0 -24 -34 -4 -23 -10 -41 -15
-41 -11 0 -11 7 2 53 11 41 32 48 65 21z m-916 -8 c0 -8 4 -16 9 -18 5 -1 3
-9 -5 -16 -12 -11 -14 -10 -14 3 0 8 -4 15 -10 15 -5 0 -10 7 -10 15 0 8 7 15
15 15 8 0 15 -6 15 -14z m490 4 c0 -5 -4 -10 -10 -10 -5 0 -10 5 -10 10 0 6 5
10 10 10 6 0 10 -4 10 -10z m-16 -137 c5 -5 6 10 2 34 -6 44 7 69 18 30 11
-42 7 -85 -10 -91 -8 -3 -12 -11 -9 -16 10 -17 35 8 35 34 0 13 11 32 25 44
26 23 40 29 30 13 -3 -5 -1 -12 5 -16 5 -3 10 -16 9 -28 0 -12 -3 -16 -6 -9
-7 18 -23 4 -23 -21 0 -12 9 -28 20 -35 18 -11 21 -9 35 20 l15 33 -5 -35 c-3
-19 -8 -54 -12 -77 -5 -39 -33 -70 -33 -37 0 8 4 13 9 10 5 -3 11 8 13 25 3
22 1 29 -9 25 -8 -3 -13 2 -13 14 0 11 -7 20 -15 20 -9 0 -15 9 -15 25 0 14
-4 25 -10 25 -5 0 -10 -19 -10 -42 0 -24 4 -38 8 -33 4 6 13 11 20 13 10 2 12
-4 7 -20 -4 -13 -9 -25 -11 -27 -7 -8 -34 29 -34 46 0 15 -2 16 -10 3 -12 -19
-30 -3 -34 31 -2 13 -8 36 -14 51 -6 15 -13 51 -16 80 l-5 53 17 -67 c9 -37
21 -70 26 -75z m168 125 c-8 -8 -17 -8 -34 0 -22 10 -21 11 12 11 26 1 31 -2
22 -11z m-882 -2 c0 -3 -4 -8 -10 -11 -5 -3 -10 -1 -10 4 0 6 5 11 10 11 6 0
10 -2 10 -4z m1030 -58 c0 -16 -4 -28 -10 -28 -5 0 -10 19 -10 43 0 31 3 38
10 27 5 -8 10 -27 10 -42z m655 -21 c1 -39 -1 -60 -3 -44 -2 15 -8 27 -13 27
-5 0 -9 9 -9 19 0 19 16 71 22 71 2 0 3 -33 3 -73z m-1859 14 c3 -23 0 -29
-10 -25 -17 7 -30 34 -16 34 6 0 10 5 10 11 0 5 -4 7 -10 4 -11 -7 -14 8 -3
19 11 11 25 -10 29 -43z m34 33 c0 -8 -5 -12 -10 -9 -6 4 -8 11 -5 16 9 14 15
11 15 -7z m1864 -19 c5 -22 4 -26 -4 -15 -5 8 -10 24 -10 34 0 26 6 18 14 -19z
m446 4 c0 -11 -4 -18 -9 -14 -6 3 -9 14 -8 25 2 24 17 15 17 -11z m-2200 11
c0 -5 -2 -10 -4 -10 -3 0 -8 5 -11 10 -3 6 -1 10 4 10 6 0 11 -4 11 -10z m90
-4 c0 -8 -14 -17 -31 -21 -20 -5 -29 -11 -25 -21 3 -8 -1 -14 -9 -14 -27 0
-16 31 15 43 17 6 30 15 30 19 0 4 5 8 10 8 6 0 10 -6 10 -14z m131 -7 c8 -16
8 -23 0 -29 -7 -4 -11 -11 -10 -16 0 -5 -2 -20 -7 -34 -8 -24 -8 -24 -15 10
-4 20 -3 40 3 47 6 7 8 20 4 28 -8 23 12 18 25 -6z m1319 6 c0 -8 -2 -15 -4
-15 -2 0 -6 7 -10 15 -3 8 -1 15 4 15 6 0 10 -7 10 -15z m270 -6 c0 -6 -4 -7
-10 -4 -5 3 -10 11 -10 16 0 6 5 7 10 4 6 -3 10 -11 10 -16z m-2080 -5 c0 -8
-4 -12 -10 -9 -5 3 -10 10 -10 16 0 5 5 9 10 9 6 0 10 -7 10 -16z m1575 -17
c7 -6 1 -7 -17 -3 -24 5 -28 3 -28 -16 l0 -22 -16 22 c-8 12 -12 27 -9 32 7
11 55 3 70 -13z m-647 -11 c-4 -17 -1 -23 9 -19 7 3 13 1 13 -5 0 -14 -19 -19
-47 -14 -13 2 -20 9 -16 15 4 6 0 8 -10 4 -12 -5 -17 -1 -17 13 0 25 18 26 36
3 13 -17 14 -17 20 5 8 30 18 28 12 -2z m129 -8 c-3 -7 -5 -2 -5 12 0 14 2 19
5 13 2 -7 2 -19 0 -25z m1108 -3 c28 -24 35 -34 23 -35 -10 0 -22 9 -28 20 -6
11 -15 20 -21 20 -6 0 -17 7 -25 15 -32 31 11 15 51 -20z m-2318 -7 c-3 -7 -5
-2 -5 12 0 14 2 19 5 13 2 -7 2 -19 0 -25z m509 2 c1 -39 -12 -39 -18 0 -3 17
0 30 6 30 6 0 11 -14 12 -30z m84 4 c0 -8 -4 -12 -10 -9 -5 3 -10 13 -10 21 0
8 5 12 10 9 6 -3 10 -13 10 -21z m720 -25 c0 -16 -17 -10 -24 9 -3 9 -9 24
-12 32 -3 8 4 4 15 -9 12 -13 21 -27 21 -32z m40 -3 c-6 -20 -15 -36 -20 -36
-5 0 -1 18 8 39 21 48 28 46 12 -3z m1052 -8 c2 -20 0 -34 -4 -32 -4 3 -8 24
-7 47 1 47 6 41 11 -15z m-2005 20 c-3 -8 -6 -5 -6 6 -1 11 2 17 5 13 3 -3 4
-12 1 -19z m1548 12 c3 -5 1 -10 -4 -10 -6 0 -11 5 -11 10 0 6 2 10 4 10 3 0
8 -4 11 -10z m-138 -6 c-3 -3 -12 -4 -19 -1 -8 3 -5 6 6 6 11 1 17 -2 13 -5z
m448 -4 c8 -13 -5 -13 -25 0 -13 8 -13 10 2 10 9 0 20 -4 23 -10z m-195 -41
c6 -22 9 -46 6 -52 -2 -7 -5 -4 -5 6 -1 20 -17 23 -24 5 -9 -26 -16 -1 -10 40
7 53 19 54 33 1z m460 37 c0 -3 -4 -8 -10 -11 -5 -3 -10 -1 -10 4 0 6 5 11 10
11 6 0 10 -2 10 -4z m-1125 -64 c-9 -9 -25 19 -24 43 0 16 2 15 15 -8 9 -16
13 -32 9 -35z m190 48 c-3 -5 -14 -10 -23 -10 -15 0 -15 2 -2 10 20 13 33 13
25 0z m-4306 -4 c-2 -2 -38 -18 -79 -35 -42 -17 -93 -46 -115 -63 -42 -35
-113 -52 -81 -19 15 14 18 14 27 1 8 -12 9 -10 4 8 -5 19 -2 23 24 28 18 4 28
11 24 17 -3 6 -1 7 6 3 6 -4 18 -3 25 3 20 17 181 72 165 57z m2728 -28 c-3
-7 -5 -2 -5 12 0 14 2 19 5 13 2 -7 2 -19 0 -25z m1113 11 c0 -5 -7 -9 -15 -9
-15 0 -20 12 -9 23 8 8 24 -1 24 -14z m-4120 1 c0 -5 -5 -10 -11 -10 -5 0 -7
5 -4 10 3 6 8 10 11 10 2 0 4 -4 4 -10z m5300 -11 c0 -6 -4 -7 -10 -4 -5 3
-10 11 -10 16 0 6 5 7 10 4 6 -3 10 -11 10 -16z m-1380 -20 c0 -11 -4 -17 -10
-14 -5 3 -10 13 -10 21 0 8 5 14 10 14 6 0 10 -9 10 -21z m1230 -26 c0 -7 -5
-13 -10 -13 -6 0 -15 -10 -20 -22 -6 -17 -9 -18 -9 -6 -1 9 4 20 10 23 6 4 8
20 4 38 -6 30 -5 31 10 13 8 -11 15 -26 15 -33z m50 24 c0 -20 5 -24 30 -22
17 1 30 -2 30 -8 0 -5 7 -7 15 -3 8 3 15 1 15 -4 0 -6 -4 -10 -10 -10 -5 0 -7
-17 -4 -41 4 -29 3 -39 -5 -35 -6 4 -11 13 -11 19 0 12 -21 34 -50 52 -7 5 -5
-3 6 -18 10 -15 22 -27 27 -27 4 0 7 -9 7 -19 0 -21 -26 -36 -36 -20 -4 7 -10
7 -17 0 -13 -13 -27 -14 -27 -2 0 5 11 13 25 18 l25 8 -31 38 c-22 27 -26 37
-15 37 12 0 14 7 10 30 -4 19 -2 30 5 30 6 0 11 -11 11 -23z m-1320 -20 c0 -5
-4 -5 -10 -2 -5 3 -10 14 -10 23 0 15 2 15 10 2 5 -8 10 -19 10 -23z m630 -9
c0 -39 -11 -30 -16 12 -2 19 0 29 6 25 6 -3 10 -20 10 -37z m863 12 c25 0 20
-15 -5 -17 -26 -2 -48 14 -48 35 0 13 2 13 18 -1 10 -10 26 -17 35 -17z m88 0
c6 0 8 -4 4 -10 -6 -10 -45 18 -45 33 0 5 7 1 16 -7 8 -9 20 -16 25 -16z
m-1321 5 c-7 -9 -15 -13 -17 -11 -7 7 7 26 19 26 6 0 6 -6 -2 -15z m446 2 c16
-6 20 -13 16 -33 l-5 -26 -14 33 c-10 24 -16 30 -22 20 -7 -10 -9 -10 -14 2
-6 15 2 16 39 4z m-129 -3 c-3 -3 -12 -4 -19 -1 -8 3 -5 6 6 6 11 1 17 -2 13
-5z m228 -14 c7 0 15 5 17 12 3 8 6 6 10 -4 8 -20 -22 -65 -32 -48 -5 8 -10 2
-14 -15 -7 -28 -2 -40 17 -40 5 0 12 -6 15 -12 2 -7 -3 -13 -11 -13 -25 0 -35
23 -32 80 3 63 5 70 12 53 2 -7 11 -13 18 -13z m77 -14 c7 4 8 2 4 -4 -4 -7
-13 -12 -21 -12 -7 0 -16 -8 -18 -17 -4 -14 -5 -12 -6 5 0 12 5 31 12 43 l12
20 3 -21 c2 -11 8 -17 14 -14z m-1734 -26 l7 -43 135 -54 c74 -29 144 -57 155
-62 43 -21 136 -61 140 -61 5 0 219 -101 224 -106 2 -2 -8 -13 -22 -25 -19
-14 -27 -30 -27 -52 -1 -18 -8 -43 -16 -57 -11 -17 -13 -19 -9 -5 4 11 9 35
12 53 5 29 3 32 -21 32 -19 0 -26 5 -26 20 0 11 6 20 13 21 6 0 -6 7 -28 16
-22 8 -107 44 -190 78 -234 99 -307 126 -323 123 -18 -4 35 -31 173 -88 121
-51 128 -53 187 -79 26 -12 54 -21 62 -21 20 0 29 -17 12 -23 -7 -3 -26 1 -40
8 -91 47 -386 166 -396 160 -9 -6 -15 22 -10 54 1 8 -4 18 -12 23 -10 7 -10
11 -1 15 10 3 9 8 -2 20 -9 8 -15 33 -15 60 0 55 8 52 18 -7z m1302 24 c0 -8
-4 -12 -10 -9 -5 3 -10 13 -10 21 0 8 5 12 10 9 6 -3 10 -13 10 -21z m150 -9
c0 -40 -29 -52 -31 -12 l0 22 -11 -22 c-11 -22 -28 -31 -28 -15 0 13 48 57 68
61 1 1 2 -15 2 -34z m520 13 c9 -20 9 -21 -2 -7 -7 9 -20 18 -28 22 -12 4 -12
6 2 6 10 1 22 -9 28 -21z m-4540 2 c0 -5 11 -21 25 -35 30 -29 10 -35 -23 -6
-23 19 -30 51 -12 51 6 0 10 -4 10 -10z m4348 -15 c-3 -14 -1 -25 3 -25 5 0 9
-4 9 -10 0 -5 -7 -10 -15 -10 -16 0 -18 12 -9 48 9 30 17 28 12 -3z m555 -55
c-3 -11 -9 -20 -14 -20 -13 0 -11 17 2 26 8 4 7 9 -2 15 -7 4 -18 4 -24 -1 -8
-7 -12 -5 -12 5 0 8 5 12 10 8 5 -3 6 4 3 18 -7 24 -7 24 18 -3 16 -18 22 -34
19 -48z m78 43 c5 -14 7 -33 4 -41 -9 -24 -33 15 -27 44 6 31 10 30 23 -3z
m-1047 -19 c-3 -35 -14 -44 -14 -12 0 21 7 38 15 38 1 0 1 -12 -1 -26z m633 4
c-3 -8 -6 -5 -6 6 -1 11 2 17 5 13 3 -3 4 -12 1 -19z m381 10 c-2 -6 -10 -13
-16 -14 -7 -1 -8 0 -2 3 5 2 8 9 4 14 -3 5 0 9 6 9 7 0 10 -5 8 -12z m-902
-33 c-3 -8 -10 -15 -15 -15 -7 0 -6 10 1 26 12 26 25 16 14 -11z m587 13 c-3
-17 -2 -19 5 -9 8 11 10 11 15 0 4 -10 8 -7 12 9 4 12 12 22 17 22 6 0 8 -6 5
-14 -3 -7 -1 -18 5 -24 6 -6 12 -38 15 -73 5 -69 -3 -81 -49 -72 -20 4 -28 1
-28 -8 0 -25 -20 13 -20 39 0 12 -4 22 -10 22 -5 0 -10 -7 -10 -15 0 -9 -6
-12 -16 -8 -13 5 -13 9 6 27 19 19 22 19 33 5 11 -15 14 -15 27 -1 13 14 12
15 -3 9 -13 -5 -17 -1 -17 15 0 12 -3 18 -7 15 -7 -8 -33 11 -33 25 0 5 5 6
10 3 6 -3 12 1 15 9 3 9 7 23 10 31 7 24 24 17 18 -7z m-4913 -24 c0 -29 -4
-30 -29 -5 -22 22 -21 26 9 28 15 1 20 -4 20 -23z m4390 22 c0 -3 -4 -8 -10
-11 -5 -3 -10 -1 -10 4 0 6 5 11 10 11 6 0 10 -2 10 -4z m288 -16 c-7 -10 -14
-18 -15 -16 -6 6 9 36 18 36 5 0 4 -9 -3 -20z m695 -1 c4 -14 10 -18 19 -13 7
4 10 3 5 -1 -11 -13 -47 -16 -47 -5 0 6 -10 10 -21 10 -18 0 -19 2 -9 15 18
22 47 18 53 -6z m-951 -14 c3 -14 1 -28 -3 -31 -5 -3 -9 9 -9 25 0 38 6 40 12
6z m-285 -7 c-3 -8 -6 -5 -6 6 -1 11 2 17 5 13 3 -3 4 -12 1 -19z m1146 -10
c-6 -31 -5 -32 12 -18 17 14 18 14 6 -8 -11 -21 -13 -21 -28 -7 -13 14 -14 20
-3 41 18 32 21 30 13 -8z m-947 7 c-3 -8 -1 -15 4 -15 6 0 10 7 10 15 0 8 5
15 10 15 6 0 10 -9 10 -20 0 -11 -5 -20 -11 -20 -5 0 -7 -4 -4 -10 10 -15 -2
-12 -20 6 -15 15 -17 15 -30 -2 -8 -11 -15 -15 -15 -9 0 8 39 53 49 54 2 1 1
-6 -3 -14z m1184 6 c0 -5 -10 -7 -22 -3 -20 5 -21 3 -10 -10 11 -14 10 -16 -7
-11 -33 8 -26 33 9 33 17 0 30 -4 30 -9z m-6160 -5 c0 -2 -7 -7 -16 -10 -8 -3
-12 -2 -9 4 6 10 25 14 25 6z m570 -21 c0 -20 -5 -25 -25 -25 -25 0 -25 1 -9
25 9 14 20 25 25 25 5 0 9 -11 9 -25z m5629 -7 c0 -28 -2 -30 -9 -13 -12 28
-12 45 0 45 6 0 10 -15 9 -32z m-1369 12 c0 -5 -2 -10 -4 -10 -3 0 -8 5 -11
10 -3 6 -1 10 4 10 6 0 11 -4 11 -10z m89 -7 c-3 -24 11 -54 22 -47 5 3 9 1 9
-5 0 -18 -18 -21 -34 -5 -16 16 -19 74 -3 74 4 0 7 -8 6 -17z m431 7 c0 -5
-10 -10 -22 -10 -19 0 -20 2 -8 10 19 13 30 13 30 0z m905 -19 c-3 -6 -11 -11
-17 -11 -6 0 -6 6 2 15 14 17 26 13 15 -4z m-1165 -11 c0 -5 -4 -10 -10 -10
-5 0 -10 5 -10 10 0 6 5 10 10 10 6 0 10 -4 10 -10z m-4601 -61 c-13 -22 -25
-36 -27 -30 -2 6 7 29 19 52 13 22 25 36 27 30 2 -6 -7 -29 -19 -52z m4917 45
c-3 -9 -6 -18 -6 -20 0 -3 -4 -3 -10 1 -11 7 -2 35 12 35 6 0 7 -7 4 -16z
m-521 -5 c10 -15 -1 -23 -20 -15 -9 3 -13 10 -10 16 8 13 22 13 30 -1z m129
-13 c-3 -9 -10 -16 -15 -16 -6 0 -5 9 1 21 13 24 24 20 14 -5z m-3987 -23 c-3
-10 -5 -4 -5 12 0 17 2 24 5 18 2 -7 2 -21 0 -30z m5183 16 c0 -6 -4 -7 -10
-4 -5 3 -10 11 -10 16 0 6 5 7 10 4 6 -3 10 -11 10 -16z m-5235 -25 c21 -50
19 -55 -5 -16 -19 31 -25 52 -15 52 3 0 12 -16 20 -36z m4685 10 c0 -8 -4 -14
-10 -14 -5 0 -10 9 -10 21 0 11 5 17 10 14 6 -3 10 -13 10 -21z m170 -34 c9
-49 4 -128 -7 -116 -3 2 -7 44 -10 93 -5 97 1 106 17 23z m260 41 c0 -5 -9 -7
-20 -4 -11 3 -20 7 -20 9 0 2 9 4 20 4 11 0 20 -4 20 -9z m150 -1 c0 -5 -4
-10 -10 -10 -5 0 -10 5 -10 10 0 6 5 10 10 10 6 0 10 -4 10 -10z m-6070 -26
c-25 -8 -58 -16 -75 -18 -16 -2 -39 -8 -50 -12 -16 -5 -18 -4 -8 6 6 7 40 18
75 25 85 17 113 16 58 -1z m3354 -25 c9 -47 7 -89 -4 -89 -5 0 -10 13 -10 29
0 16 -3 43 -6 60 -4 18 -2 31 4 31 5 0 12 -14 16 -31z m1476 12 c0 -11 -4 -23
-10 -26 -5 -3 -10 -2 -10 4 0 5 -3 16 -6 25 -4 11 -1 16 10 16 9 0 16 -8 16
-19z m1220 5 c0 -3 -4 -8 -10 -11 -5 -3 -10 -1 -10 4 0 6 5 11 10 11 6 0 10
-2 10 -4z m-5984 -21 c-3 -9 0 -15 9 -15 19 0 20 -26 1 -33 -21 -8 -56 4 -56
19 0 8 7 14 15 14 8 0 15 4 15 10 0 5 -7 6 -17 3 -11 -4 -14 -3 -9 5 11 18 49
15 42 -3z m5834 -15 c0 -16 -4 -30 -8 -30 -9 0 -13 27 -6 48 6 22 14 13 14
-18z m-5897 13 c-7 -2 -19 -2 -25 0 -7 3 -2 5 12 5 14 0 19 -2 13 -5z m-58
-13 c-11 -5 -29 -8 -40 -8 -16 0 -15 2 5 8 34 11 60 11 35 0z m5382 -22 c-3
-7 -5 -2 -5 12 0 14 2 19 5 13 2 -7 2 -19 0 -25z m715 16 c-13 -9 -26 -13 -30
-9 -8 8 17 25 38 25 9 0 6 -6 -8 -16z m-1112 -34 c0 -13 -1 -13 -10 0 -5 8
-10 22 -10 30 0 13 1 13 10 0 5 -8 10 -22 10 -30z m601 7 c-10 -9 -11 -8 -5 6
3 10 9 15 12 12 3 -3 0 -11 -7 -18z m186 -19 c-3 -8 -6 -5 -6 6 -1 11 2 17 5
13 3 -3 4 -12 1 -19z m368 12 c-3 -5 -12 -10 -18 -10 -7 0 -6 4 3 10 19 12 23
12 15 0z m-1995 -50 c9 -6 10 -10 3 -10 -6 0 -19 -7 -27 -16 -15 -14 -16 -13
-12 8 3 13 5 24 5 26 2 5 17 1 31 -8z m1683 -5 c4 -8 3 -16 -1 -19 -4 -3 -9 4
-9 15 -2 23 3 25 10 4z m174 9 c-3 -3 -12 -4 -19 -1 -8 3 -5 6 6 6 11 1 17 -2
13 -5z m-634 -66 c-1 -19 4 -29 18 -33 27 -9 19 -16 -9 -8 -15 4 -22 13 -22
30 0 13 -4 22 -9 19 -5 -3 -7 -16 -4 -29 l5 -22 -17 23 c-13 18 -14 26 -4 38
19 23 44 12 42 -18z m387 28 c0 -3 -4 -8 -10 -11 -5 -3 -10 -1 -10 4 0 6 5 11
10 11 6 0 10 -2 10 -4z m-1606 -35 c4 -5 -3 -7 -14 -4 -23 6 -26 13 -6 13 8 0
17 -4 20 -9z m-1618 -48 c27 -27 26 -25 18 -48 -5 -11 -13 -3 -30 31 -13 26
-24 52 -23 58 0 6 3 5 6 -3 3 -8 17 -25 29 -38z m3241 15 c-3 -8 -6 -5 -6 6
-1 11 2 17 5 13 3 -3 4 -12 1 -19z m-1420 -24 c59 -20 128 -40 153 -44 98 -18
143 -31 188 -51 26 -11 72 -29 103 -39 31 -10 76 -28 100 -39 23 -12 50 -21
60 -21 17 0 79 -48 79 -62 0 -4 -7 -5 -16 -1 -9 3 -25 7 -37 8 -35 4 -37 5
-37 14 0 4 12 6 26 3 17 -3 25 -1 21 5 -4 6 -21 13 -39 15 -18 3 -42 9 -52 13
-16 7 -18 5 -13 -8 8 -22 5 -21 -36 3 -68 40 -173 53 -457 54 -254 1 -310 -2
-499 -24 -46 -5 -90 -6 -98 -1 -10 5 12 10 58 15 139 13 146 15 176 58 29 43
46 37 17 -7 -9 -14 -15 -28 -12 -30 2 -3 48 -2 101 2 101 6 98 5 101 52 1 8
10 17 21 21 26 9 28 58 4 65 -22 7 -46 35 -31 35 6 0 60 -16 119 -36z m-837
-113 c0 -4 -11 -6 -25 -3 -14 2 -25 6 -25 8 0 2 11 4 25 4 14 0 25 -4 25 -9z
m-4440 -5 c0 -3 -4 -8 -10 -11 -5 -3 -10 -1 -10 4 0 6 5 11 10 11 6 0 10 -2
10 -4z m4384 -17 l25 -22 -24 -19 c-24 -18 -25 -18 -43 0 -19 19 -18 41 2 54
15 10 13 11 40 -13z m971 -45 c28 -18 33 -34 11 -34 -18 0 -76 32 -76 43 0 13
40 7 65 -9z m-590 -34 c10 -11 15 -23 12 -27 -12 -11 -87 17 -87 32 0 22 54
19 75 -5z m-665 -75 c14 -17 5 -35 -18 -35 -21 0 -62 27 -62 41 0 15 66 10 80
-6z m-2234 -56 c10 -17 -13 -36 -27 -22 -12 12 -4 33 11 33 5 0 12 -5 16 -11z
m1489 -29 c25 -27 8 -44 -34 -35 -39 8 -49 24 -26 42 26 18 39 16 60 -7z
m-425 -20 c0 -10 -3 -11 -130 -35 -204 -39 -217 -44 -212 -70 3 -21 -1 -25
-32 -30 -37 -7 -71 8 -60 26 8 13 -28 11 -120 -7 -520 -100 -554 -107 -626
-134 -65 -24 -70 -24 -70 -5 0 19 64 36 400 100 74 14 171 35 215 45 44 10
105 21 135 25 30 3 91 15 135 25 44 10 112 24 150 30 39 6 99 17 135 24 36 7
68 14 73 15 4 0 7 -3 7 -9z m-1690 -24 c0 -11 -19 -15 -25 -6 -3 5 1 10 9 10
9 0 16 -2 16 -4z m-225 -117 c-47 -10 -105 -10 -105 1 0 9 107 19 125 10 6 -2
-3 -8 -20 -11z m83 14 c-10 -2 -26 -2 -35 0 -10 3 -2 5 17 5 19 0 27 -2 18 -5z
m-183 -133 c3 -5 1 -10 -4 -10 -6 0 -11 5 -11 10 0 6 2 10 4 10 3 0 8 -4 11
-10z m-644 -81 c-6 -16 -10 -18 -10 -7 -1 22 12 55 16 42 2 -6 -1 -22 -6 -35z
m829 -46 c0 -10 -42 -53 -52 -53 -14 0 -9 28 8 44 16 16 44 22 44 9z m-1109
-52 c-24 -33 -27 -60 -8 -62 6 -1 17 -2 22 -4 6 -1 13 -3 18 -3 4 -1 1 -15 -8
-32 -8 -16 -14 -35 -13 -42 2 -6 -5 -14 -14 -16 -12 -2 -18 3 -18 15 0 10 -4
14 -8 8 -14 -20 -32 -15 -32 10 0 18 5 25 20 25 24 0 25 6 5 26 -22 23 -18 52
11 79 37 34 50 31 25 -4z m76 -58 c-3 -10 -5 -4 -5 12 0 17 2 24 5 18 2 -7 2
-21 0 -30z m-13 -46 c-7 -18 -24 -23 -24 -8 0 22 13 42 22 33 5 -5 6 -16 2
-25z m-51 -119 c-5 -32 -3 -39 7 -33 9 5 11 4 6 -4 -4 -6 -12 -9 -17 -6 -5 4
-9 1 -9 -6 0 -7 -3 -10 -6 -7 -8 9 7 98 16 98 5 0 6 -19 3 -42z m-593 -78 c0
-5 -4 -10 -10 -10 -5 0 -10 5 -10 10 0 6 5 10 10 10 6 0 10 -4 10 -10z m-3
-36 c-3 -3 -12 -4 -19 -1 -8 3 -5 6 6 6 11 1 17 -2 13 -5z m-697 -134 c0 -5
-4 -10 -10 -10 -5 0 -10 5 -10 10 0 6 5 10 10 10 6 0 10 -4 10 -10z m20 -70
c5 0 11 8 13 18 4 13 5 12 6 -5 1 -24 -20 -44 -27 -25 -2 7 -10 12 -18 12 -9
0 -12 5 -9 10 3 6 -3 10 -14 10 -12 0 -21 -4 -21 -10 0 -5 -8 -10 -17 -10 -15
0 -14 2 3 19 10 10 21 17 24 16 3 -1 14 1 25 5 16 6 21 3 23 -16 2 -13 7 -24
12 -24z m50 11 c0 -11 -4 -23 -10 -26 -6 -4 -10 5 -10 19 0 14 5 26 10 26 6 0
10 -9 10 -19z m-20 -44 c0 -2 -9 -12 -20 -22 -19 -18 -20 -17 -20 3 0 15 6 22
20 22 11 0 20 -2 20 -3z m-60 -37 c0 -5 -4 -10 -10 -10 -5 0 -10 5 -10 10 0 6
5 10 10 10 6 0 10 -4 10 -10z m20 -24 c0 -3 -4 -8 -10 -11 -5 -3 -10 -1 -10 4
0 6 5 11 10 11 6 0 10 -2 10 -4z m282 -116 c12 -11 33 -20 48 -20 14 0 33 -9
43 -20 16 -19 16 -20 -1 -21 -10 0 -12 -3 -4 -6 6 -2 12 -13 12 -23 0 -15 -7
-18 -40 -16 -33 3 -40 0 -40 -15 0 -23 -8 -23 -34 -4 -17 13 -18 15 -3 15 9 0
17 2 17 4 0 2 3 11 6 20 3 9 1 16 -5 16 -7 0 -23 7 -37 16 l-25 17 21 14 c20
14 20 16 3 29 -17 13 -17 13 0 14 10 0 27 -9 39 -20z m-52 -80 c0 -5 -2 -10
-4 -10 -3 0 -8 5 -11 10 -3 6 -1 10 4 10 6 0 11 -4 11 -10z m35 -10 c3 -5 2
-10 -4 -10 -5 0 -13 5 -16 10 -3 6 -2 10 4 10 5 0 13 -4 16 -10z m-41 -34 c-4
-9 4 -16 23 -20 16 -4 37 -19 46 -34 l18 -27 -2 25 c-2 43 0 50 19 50 15 -1
15 -2 2 -13 -8 -7 -15 -25 -15 -41 0 -37 -22 -46 -34 -14 -13 34 -38 53 -53
41 -19 -15 -48 -12 -48 6 0 12 3 12 12 3 19 -19 26 -14 20 13 -2 14 0 25 7 25
5 0 8 -6 5 -14z m-41 -69 c3 -8 1 -20 -4 -28 -7 -11 -9 -8 -9 9 0 19 -4 22
-27 16 -22 -4 -25 -3 -13 5 21 15 47 14 53 -2z m82 3 c3 -5 2 -10 -4 -10 -5 0
-13 5 -16 10 -3 6 -2 10 4 10 5 0 13 -4 16 -10z m-35 -10 c0 -5 -7 -7 -15 -4
-8 4 -15 8 -15 10 0 2 7 4 15 4 8 0 15 -4 15 -10z m33 -37 c-7 -2 -19 -2 -25
0 -7 3 -2 5 12 5 14 0 19 -2 13 -5z m-116 -35 c-3 -7 -5 -2 -5 12 0 14 2 19 5
13 2 -7 2 -19 0 -25z m57 -10 c6 -4 7 -8 1 -8 -22 0 -36 17 -28 36 7 18 8 18
11 -1 3 -11 9 -23 16 -27z m96 32 c0 -5 -2 -10 -4 -10 -3 0 -8 5 -11 10 -3 6
-1 10 4 10 6 0 11 -4 11 -10z m-65 -10 c3 -6 -1 -7 -9 -4 -18 7 -21 14 -7 14
6 0 13 -4 16 -10z m-115 -7 c0 -17 -19 -37 -27 -29 -4 5 -2 11 5 13 6 3 10 9
6 14 -3 5 0 9 5 9 6 0 11 -3 11 -7z m117 -35 c-3 -8 -6 -5 -6 6 -1 11 2 17 5
13 3 -3 4 -12 1 -19z m-82 -17 c-3 -6 -11 -11 -16 -11 -5 0 -4 6 3 14 14 16
24 13 13 -3z m56 1 c-7 -2 -18 1 -23 6 -8 8 -4 9 13 5 13 -4 18 -8 10 -11z
m46 -58 c-3 -3 -12 -4 -19 -1 -8 3 -5 6 6 6 11 1 17 -2 13 -5z"/>
<path d="M7287 2763 c-3 -5 0 -19 8 -29 15 -20 18 -11 6 20 -4 11 -10 15 -14
9z"/>
<path d="M7870 2670 c0 -5 5 -10 10 -10 6 0 10 5 10 10 0 6 -4 10 -10 10 -5 0
-10 -4 -10 -10z"/>
<path d="M7995 2640 c-4 -7 -1 -16 6 -21 17 -10 26 8 11 23 -6 6 -12 6 -17 -2z"/>
<path d="M7940 2630 c0 -5 5 -10 11 -10 5 0 7 5 4 10 -3 6 -8 10 -11 10 -2 0
-4 -4 -4 -10z"/>
<path d="M9234 2365 c-4 -8 -12 -15 -20 -15 -8 0 -14 -7 -14 -15 0 -8 7 -15
15 -15 12 0 14 -7 9 -27 l-7 -28 25 22 c19 18 23 30 20 58 -4 36 -18 46 -28
20z"/>
<path d="M9240 2260 c0 -5 5 -10 10 -10 6 0 10 5 10 10 0 6 -4 10 -10 10 -5 0
-10 -4 -10 -10z"/>
<path d="M1860 350 c0 -11 24 -30 37 -30 7 0 13 8 13 18 0 12 -8 17 -25 17
-14 0 -25 -2 -25 -5z"/>
<path d="M1878 303 c6 -2 18 -2 25 0 6 3 1 5 -13 5 -14 0 -19 -2 -12 -5z"/>
<path d="M7015 3968 c-4 -10 -10 -16 -15 -13 -4 2 -7 -9 -6 -25 1 -17 3 -30 6
-30 9 0 32 60 27 72 -3 9 -7 7 -12 -4z"/>
<path d="M4940 3660 c0 -5 5 -10 11 -10 5 0 7 5 4 10 -3 6 -8 10 -11 10 -2 0
-4 -4 -4 -10z"/>
<path d="M4958 3623 c6 -2 18 -2 25 0 6 3 1 5 -13 5 -14 0 -19 -2 -12 -5z"/>
<path d="M5163 3618 c1 -8 -7 -12 -20 -10 -12 2 -33 -3 -45 -9 -13 -7 -33 -12
-45 -10 -13 1 -23 -2 -23 -7 0 -14 23 -21 53 -15 16 3 27 1 27 -6 0 -6 5 -10
11 -8 9 1 27 -19 35 -41 3 -8 34 12 34 23 0 7 11 15 25 17 14 3 25 1 25 -3 0
-15 18 -10 24 7 5 14 1 16 -34 10 -42 -7 -53 7 -28 32 9 9 8 12 -6 12 -9 0
-14 5 -11 10 3 6 -1 10 -9 10 -9 0 -15 -6 -13 -12z"/>
<path d="M4915 3580 c3 -5 8 -10 11 -10 2 0 4 5 4 10 0 6 -5 10 -11 10 -5 0
-7 -4 -4 -10z"/>
<path d="M5030 3514 c0 -8 5 -12 10 -9 6 4 8 11 5 16 -9 14 -15 11 -15 -7z"/>
<path d="M5078 3513 c6 -2 12 -13 12 -23 0 -10 7 -20 15 -24 9 -3 15 0 15 8 0
29 -13 46 -34 45 -11 0 -15 -3 -8 -6z"/>
<path d="M5138 3443 c30 -3 42 -9 42 -20 0 -13 3 -13 16 -2 14 12 14 14 -3 20
-10 4 -36 7 -58 7 l-40 -1 43 -4z"/>
<path d="M5240 3425 c0 -17 24 -47 32 -39 3 2 11 -2 18 -11 7 -8 23 -15 36
-15 16 0 24 -6 24 -17 0 -13 3 -14 12 -5 16 16 28 15 28 -3 0 -18 36 -20 43
-2 3 6 6 -1 6 -17 1 -24 3 -27 16 -16 12 10 15 10 15 -4 0 -9 7 -16 15 -16 7
0 19 -8 24 -17 10 -17 10 -17 11 1 0 12 5 16 15 12 13 -4 13 -2 5 14 -14 26
-13 33 10 58 22 23 19 25 -36 22 -20 -1 -33 4 -37 14 -7 17 -47 22 -47 6 0 -5
-15 -10 -34 -10 -25 0 -36 5 -41 19 -3 10 -18 21 -34 24 -16 3 -40 9 -55 13
-20 5 -26 2 -26 -11z m269 -111 c6 -15 9 -29 7 -32 -10 -9 -36 20 -36 39 0 27
15 23 29 -7z"/>
<path d="M3795 3360 c-3 -6 1 -7 9 -4 18 7 21 14 7 14 -6 0 -13 -4 -16 -10z"/>
<path d="M6570 3325 c-6 -19 -8 -39 -5 -45 11 -17 -4 -60 -20 -60 -8 0 -19 -9
-25 -20 -6 -11 -15 -18 -20 -15 -11 7 -40 -5 -40 -17 0 -6 7 -5 15 2 13 10 19
10 34 -4 15 -14 24 -15 40 -6 17 9 21 8 21 -5 0 -8 -7 -15 -15 -15 -20 0 -19
-16 1 -24 20 -8 18 -10 32 34 l11 35 -2 -40 c-1 -31 2 -40 16 -43 20 -4 24 24
5 31 -17 6 -9 14 17 19 11 1 23 10 27 18 10 23 9 60 -2 60 -5 0 -11 -12 -11
-27 -1 -19 -3 -22 -6 -10 -3 13 -10 16 -21 12 -31 -13 -57 -10 -57 5 0 8 16
19 39 25 22 6 42 17 44 23 6 19 -17 50 -40 54 -17 2 -22 9 -21 26 4 32 -4 27
-17 -13z"/>
<path d="M5560 3331 c0 -6 4 -13 10 -16 6 -3 7 1 4 9 -7 18 -14 21 -14 7z"/>
<path d="M6510 3328 c0 -14 -9 -18 -40 -18 -22 0 -40 -5 -40 -11 0 -5 -4 -8
-9 -5 -5 3 -14 -1 -21 -9 -10 -13 -9 -15 9 -15 12 0 21 -6 21 -15 0 -17 -16
-20 -25 -5 -3 6 -27 10 -53 9 -40 -1 -43 -2 -22 -10 19 -6 10 -8 -35 -7 -124
1 -115 6 -115 -62 0 -51 3 -60 18 -60 10 0 23 -5 29 -11 7 -7 17 -8 29 -1 11
5 31 12 47 16 23 5 27 3 27 -14 0 -14 7 -20 21 -20 26 0 119 32 119 41 0 10
-61 23 -93 20 -23 -2 -28 1 -25 16 2 14 14 19 48 21 25 2 53 11 62 19 11 10
18 12 18 5 0 -7 5 -12 10 -12 6 0 10 8 10 19 0 10 9 21 20 24 24 6 27 53 5 83
-13 17 -14 17 -15 2z m-240 -204 c0 -2 -4 -4 -8 -4 -13 0 -33 50 -26 62 5 8
34 -41 34 -58z"/>
<path d="M3735 3298 c-20 -21 -23 -28 -10 -20 23 12 59 52 47 52 -4 0 -20 -14
-37 -32z"/>
<path d="M5606 3295 c-3 -8 -12 -15 -21 -15 -8 0 -15 -5 -15 -11 0 -5 5 -7 11
-4 6 4 17 -1 24 -11 11 -15 14 -16 15 -4 0 8 3 25 6 38 7 24 -10 31 -20 7z"/>
<path d="M6746 3295 c-11 -29 -7 -57 7 -49 6 4 4 -2 -6 -13 -10 -11 -17 -24
-16 -29 5 -31 -3 -44 -28 -45 -19 -1 -22 -3 -10 -6 11 -3 16 -11 13 -19 -3 -8
-1 -14 4 -14 6 0 10 -8 10 -18 0 -27 9 -32 37 -21 22 8 24 7 18 -11 -3 -11 -3
-21 2 -21 4 -1 17 -3 28 -4 11 -2 27 -5 35 -7 8 -3 12 -3 8 -1 -13 7 -9 23 5
21 8 -2 12 12 12 45 0 36 -4 49 -17 53 -10 3 -18 15 -19 27 0 18 -3 16 -15
-12 -19 -41 -32 -33 -14 9 11 26 10 33 -3 48 -9 10 -22 33 -30 51 -11 26 -15
30 -21 16z m29 -185 c-4 -6 -11 -8 -16 -5 -5 4 -9 1 -9 -6 0 -7 -3 -10 -6 -6
-9 9 5 27 22 27 8 0 12 -5 9 -10z"/>
<path d="M5643 3283 c-7 -3 -13 -17 -12 -31 0 -27 0 -27 11 -4 8 15 17 21 30
16 10 -3 18 -1 18 4 0 11 -30 20 -47 15z"/>
<path d="M5702 3257 c-16 -45 -15 -57 4 -57 9 0 22 -6 28 -14 10 -13 68 -21
119 -17 18 1 25 31 7 31 -5 0 -15 20 -21 45 l-11 45 -57 0 c-55 0 -57 -1 -69
-33z"/>
<path d="M6654 3126 c-4 -11 0 -24 10 -34 15 -15 16 -15 16 3 0 11 -4 27 -10
35 -8 12 -10 12 -16 -4z"/>
<path d="M3447 3023 c-59 -60 -109 -111 -113 -115 -3 -4 3 -6 15 -5 19 1 40
21 146 142 6 6 26 28 44 48 19 20 30 37 25 37 -5 0 -58 -48 -117 -107z"/>
<path d="M6490 3106 c0 -13 7 -26 15 -30 18 -7 20 5 3 22 -10 10 -10 15 2 22
13 8 12 10 -2 10 -12 0 -18 -8 -18 -24z"/>
<path d="M5078 3113 c6 -2 18 -2 25 0 6 3 1 5 -13 5 -14 0 -19 -2 -12 -5z"/>
<path d="M5158 3113 c6 -2 18 -2 25 0 6 3 1 5 -13 5 -14 0 -19 -2 -12 -5z"/>
<path d="M5028 3103 c7 -3 16 -2 19 1 4 3 -2 6 -13 5 -11 0 -14 -3 -6 -6z"/>
<path d="M5168 3103 c-38 -2 -68 -8 -68 -12 0 -5 -12 -6 -27 -4 l-28 4 30 -17
c17 -9 35 -23 40 -31 8 -11 17 -12 38 -4 32 12 61 4 159 -46 49 -25 58 -18 58
40 0 81 3 80 -202 70z"/>
<path d="M4675 3082 c-66 -8 -121 -19 -123 -24 -2 -4 -25 -9 -50 -9 -26 -1
-35 -4 -21 -6 32 -5 325 32 359 46 24 9 23 10 -10 9 -19 0 -89 -7 -155 -16z"/>
<path d="M6105 3080 c-3 -4 17 -10 43 -13 97 -12 319 -87 342 -116 10 -12 59
-41 71 -41 44 0 -119 99 -213 129 -57 19 -238 49 -243 41z"/>
<path d="M6545 3069 c-4 -6 -5 -12 -2 -15 2 -3 7 2 10 11 7 17 1 20 -8 4z"/>
<path d="M6447 3053 c-7 -7 51 -38 66 -35 4 1 7 -2 7 -8 0 -5 7 -10 15 -10 32
0 8 40 -26 45 -13 1 -31 6 -40 9 -8 4 -18 3 -22 -1z"/>
<path d="M6677 3044 c7 -3 9 -12 6 -20 -6 -16 13 -19 23 -3 7 11 -13 29 -31
28 -5 0 -5 -3 2 -5z"/>
<path d="M6620 3003 c0 -22 2 -25 10 -13 13 20 13 40 0 40 -5 0 -10 -12 -10
-27z"/>
<path d="M4250 3000 c-30 -11 -44 -18 -30 -15 14 3 42 8 63 11 20 4 40 11 43
15 8 13 -15 10 -76 -11z"/>
<path d="M6755 3010 c3 -5 8 -10 11 -10 2 0 4 5 4 10 0 6 -5 10 -11 10 -5 0
-7 -4 -4 -10z"/>
<path d="M6720 3009 c0 -16 29 -59 34 -51 3 6 -3 21 -14 33 -11 13 -19 21 -20
18z"/>
<path d="M6781 2974 c0 -11 3 -14 6 -6 3 7 2 16 -1 19 -3 4 -6 -2 -5 -13z"/>
<path d="M4120 2964 c-32 -12 -33 -13 -9 -13 15 -1 40 6 55 14 22 11 24 15 9
14 -11 -1 -36 -7 -55 -15z"/>
<path d="M3895 2940 c4 -6 11 -8 16 -5 14 9 11 15 -7 15 -8 0 -12 -5 -9 -10z"/>
<path d="M4003 2920 c-30 -12 -29 -18 2 -12 14 2 25 8 25 13 0 5 -1 9 -2 8 -2
0 -13 -4 -25 -9z"/>
<path d="M3282 2850 c-13 -17 -21 -34 -17 -40 3 -5 0 -7 -8 -4 -8 3 -21 -6
-32 -23 -10 -15 -28 -37 -40 -49 -12 -11 -28 -37 -35 -58 -8 -25 -17 -36 -26
-32 -8 3 -14 2 -14 -2 0 -4 -17 -25 -38 -48 -20 -23 -44 -53 -51 -68 -8 -15
-30 -42 -48 -62 -19 -19 -31 -39 -28 -45 4 -6 -2 -13 -14 -16 -26 -7 -28 -23
-2 -23 10 0 29 14 42 31 13 18 33 41 45 53 11 12 23 29 27 39 3 9 11 17 16 17
5 0 13 9 16 20 3 11 12 20 18 20 7 0 18 12 24 28 15 33 35 65 47 73 5 4 5 13
1 20 -6 9 -3 11 8 6 10 -3 17 -3 17 2 0 4 19 29 43 54 23 26 59 67 80 92 36
43 37 45 15 44 -13 0 -33 -13 -46 -29z m-312 -420 c0 -5 -4 -10 -10 -10 -5 0
-10 5 -10 10 0 6 5 10 10 10 6 0 10 -4 10 -10z"/>
<path d="M3780 2870 c-8 -5 -10 -10 -5 -10 6 0 17 5 25 10 8 5 11 10 5 10 -5
0 -17 -5 -25 -10z"/>
<path d="M4360 2619 c-30 -4 -75 -17 -100 -29 -46 -21 -34 -20 60 5 30 8 68
15 85 16 16 0 39 4 50 9 17 7 15 9 -10 8 -16 0 -55 -4 -85 -9z"/>
<path d="M6178 2573 c6 -2 18 -2 25 0 6 3 1 5 -13 5 -14 0 -19 -2 -12 -5z"/>
<path d="M3566 2481 c-4 -7 -5 -15 -2 -18 9 -9 19 4 14 18 -4 11 -6 11 -12 0z"/>
<path d="M3540 2426 c-15 -42 -11 -55 6 -17 8 19 12 36 9 39 -2 3 -9 -7 -15
-22z"/>
<path d="M3196 2386 c10 -8 21 -12 24 -10 5 6 -21 24 -34 24 -6 0 -1 -6 10
-14z"/>
<path d="M3175 2350 c3 -5 8 -10 11 -10 2 0 4 5 4 10 0 6 -5 10 -11 10 -5 0
-7 -4 -4 -10z"/>
<path d="M2856 2318 c-18 -25 -20 -38 -7 -38 5 0 14 14 20 30 12 36 8 38 -13
8z"/>
<path d="M2985 2330 c-7 -12 2 -12 30 0 19 8 19 9 -2 9 -12 1 -25 -3 -28 -9z"/>
<path d="M5136 2302 c-4 -10 -2 -30 3 -43 5 -13 10 -18 10 -10 1 8 8 11 21 8
25 -6 25 -8 -4 32 -22 29 -25 30 -30 13z"/>
<path d="M3475 2280 c-3 -5 1 -10 10 -10 9 0 13 5 10 10 -3 6 -8 10 -10 10 -2
0 -7 -4 -10 -10z"/>
<path d="M2832 2230 c0 -14 2 -19 5 -12 2 6 2 18 0 25 -3 6 -5 1 -5 -13z"/>
<path d="M2766 2204 c-11 -8 -16 -14 -11 -14 4 0 0 -8 -9 -19 -16 -17 -16 -19
2 -23 31 -8 56 16 46 46 -8 22 -11 23 -28 10z"/>
<path d="M3152 2156 c-1 -28 2 -36 16 -36 19 0 42 18 42 32 0 4 -7 8 -16 8 -9
0 -22 7 -29 16 -10 14 -12 11 -13 -20z"/>
<path d="M4560 2179 c0 -5 5 -7 10 -4 6 3 10 8 10 11 0 2 -4 4 -10 4 -5 0 -10
-5 -10 -11z"/>
<path d="M4528 2173 c7 -3 16 -2 19 1 4 3 -2 6 -13 5 -11 0 -14 -3 -6 -6z"/>
<path d="M4471 2143 c-1 -12 -7 -23 -13 -26 -9 -3 -10 -8 -3 -15 7 -7 16 -6
30 4 13 10 16 17 9 22 -6 4 -14 14 -17 22 -4 10 -6 8 -6 -7z"/>
<path d="M2718 2130 c-2 -5 -21 -28 -44 -52 -23 -24 -47 -55 -55 -69 -24 -43
-102 -149 -146 -198 -24 -25 -43 -53 -43 -62 0 -9 -9 -24 -20 -34 -11 -10 -20
-24 -20 -31 0 -7 -9 -16 -20 -19 -12 -4 -23 -18 -26 -34 -3 -16 -24 -47 -45
-70 -22 -23 -38 -45 -35 -50 3 -4 -6 -20 -20 -36 -26 -30 -30 -40 -14 -30 6 4
41 10 77 13 l67 7 29 55 c15 30 34 62 41 70 7 8 24 36 36 63 13 26 27 47 32
47 4 0 18 23 30 50 12 28 25 50 29 50 4 0 10 11 13 25 3 13 17 41 31 61 14 20
25 43 25 50 0 8 7 14 15 14 8 0 15 8 15 18 0 10 6 24 12 30 10 10 10 15 -2 22
-8 5 -11 13 -6 17 5 4 11 2 13 -4 6 -17 23 -17 23 0 0 7 8 22 19 33 30 33 35
61 12 67 -11 3 -21 1 -23 -3z"/>
<path d="M3050 1789 c0 -5 5 -7 10 -4 6 3 10 8 10 11 0 2 -4 4 -10 4 -5 0 -10
-5 -10 -11z"/>
<path d="M4645 1760 c-14 -6 0 -9 45 -9 36 0 74 4 85 9 14 6 0 9 -45 9 -36 0
-74 -4 -85 -9z"/>
<path d="M4592 1718 c5 -15 88 -24 88 -10 0 13 -25 22 -62 22 -19 0 -28 -4
-26 -12z"/>
<path d="M3990 1712 c0 -7 63 -42 75 -42 3 0 5 7 5 15 0 8 -9 15 -20 15 -11 0
-20 5 -20 10 0 6 -9 10 -20 10 -11 0 -20 -4 -20 -8z"/>
<path d="M5428 1683 c7 -3 16 -2 19 1 4 3 -2 6 -13 5 -11 0 -14 -3 -6 -6z"/>
<path d="M4128 1673 c7 -3 16 -2 19 1 4 3 -2 6 -13 5 -11 0 -14 -3 -6 -6z"/>
<path d="M3485 1619 c4 -12 8 -29 9 -37 4 -28 26 -26 24 2 -1 14 -6 26 -10 26
-4 0 -8 7 -8 15 0 8 -5 15 -11 15 -6 0 -8 -9 -4 -21z"/>
<path d="M2190 1460 c0 -5 4 -10 9 -10 6 0 13 5 16 10 3 6 -1 10 -9 10 -9 0
-16 -4 -16 -10z"/>
<path d="M2060 1355 c0 -5 5 -17 10 -25 5 -8 10 -10 10 -5 0 6 -5 17 -10 25
-5 8 -10 11 -10 5z"/>
<path d="M1862 1100 c0 -14 2 -19 5 -12 2 6 2 18 0 25 -3 6 -5 1 -5 -13z"/>
<path d="M1890 1100 c0 -5 5 -10 10 -10 6 0 10 5 10 10 0 6 -4 10 -10 10 -5 0
-10 -4 -10 -10z"/>
<path d="M1778 945 c2 -14 6 -25 8 -25 2 0 4 11 4 25 0 14 -4 25 -9 25 -4 0
-6 -11 -3 -25z"/>
<path d="M8843 963 c82 -2 212 -2 290 0 78 1 12 3 -148 3 -159 0 -223 -2 -142
-3z"/>
<path d="M8430 954 c-385 -26 -909 -105 -1400 -214 -102 -23 -216 -48 -254
-56 -38 -8 -73 -17 -77 -20 -5 -2 -45 -13 -91 -23 -140 -31 -413 -109 -628
-181 -337 -112 -535 -199 -693 -305 -75 -50 -177 -136 -177 -149 0 -3 10 -6
23 -6 12 0 44 20 72 46 67 61 196 146 303 199 255 126 761 294 1217 404 94 23
179 44 190 47 40 10 353 76 490 104 335 67 785 125 1150 149 l120 8 -100 0
c-55 0 -120 -2 -145 -3z"/>
<path d="M1655 730 c-3 -5 1 -10 10 -10 9 0 13 5 10 10 -3 6 -8 10 -10 10 -2
0 -7 -4 -10 -10z"/>
<path d="M8380 709 c-59 -12 -125 -19 -177 -19 -23 1 -44 -4 -48 -10 -3 -5
-16 -8 -28 -5 -12 3 -60 1 -107 -5 -47 -6 -105 -13 -130 -17 -25 -3 -47 -8
-50 -12 -3 -3 -25 -7 -50 -8 -25 0 -66 -6 -92 -12 -27 -6 -67 -15 -91 -19 -23
-5 -47 -11 -53 -15 -6 -3 -53 -13 -105 -21 -78 -13 -98 -19 -116 -41 -13 -14
-23 -36 -23 -49 0 -24 36 -85 109 -183 44 -60 48 -63 89 -63 46 0 56 -14 17
-24 -25 -6 -34 -29 -15 -41 5 -3 34 -41 65 -85 l56 -80 65 0 64 0 -64 83 c-35
45 -77 96 -92 112 -16 17 -34 41 -41 53 -7 13 -52 75 -99 138 -48 63 -84 118
-80 121 3 4 7 4 9 2 2 -2 50 -64 106 -136 101 -132 102 -133 144 -134 30 -2
34 -3 15 -6 -16 -2 -28 -10 -28 -17 0 -7 34 -58 76 -114 l76 -102 54 0 54 0
-93 115 c-50 64 -101 128 -112 143 -11 14 -52 67 -90 117 -113 145 -127 165
-123 176 2 6 30 -24 63 -67 32 -44 61 -81 65 -84 3 -3 28 -34 54 -69 27 -35
63 -69 80 -77 17 -7 25 -13 19 -14 -23 0 -14 -18 73 -129 l86 -111 50 0 c47 0
49 1 37 17 -8 10 -17 22 -21 28 -4 5 -34 42 -66 80 -32 39 -94 115 -137 170
-43 55 -82 102 -85 105 -21 18 -119 154 -115 159 4 3 18 -9 33 -28 176 -219
215 -261 240 -261 21 0 24 -2 12 -10 -19 -12 -13 -23 94 -157 l81 -102 49 0
c55 -1 59 -12 -32 99 -30 36 -75 90 -101 120 -27 30 -75 89 -109 130 -33 41
-85 106 -116 144 -31 38 -54 72 -50 75 3 3 20 -12 37 -34 18 -21 52 -62 77
-91 25 -28 63 -74 85 -102 22 -28 47 -51 56 -52 10 0 19 -12 23 -27 3 -16 20
-44 38 -64 18 -20 53 -61 78 -90 97 -116 91 -111 142 -107 l47 3 -86 100 c-47
55 -102 120 -124 145 -21 25 -57 68 -79 95 -23 28 -59 70 -80 95 -20 25 -50
61 -66 80 -16 19 -35 41 -42 49 -7 7 -10 16 -7 20 7 7 14 -1 159 -172 90 -107
106 -122 128 -118 4 0 5 -6 2 -14 -4 -9 36 -65 107 -150 l114 -135 49 0 c46 0
48 1 34 18 -28 33 -181 208 -222 252 -23 25 -57 65 -76 89 -19 24 -40 48 -45
55 -6 6 -35 40 -65 75 -30 36 -63 73 -73 84 -10 10 -16 21 -13 25 4 3 12 -1
19 -9 7 -8 47 -52 88 -99 124 -142 171 -190 182 -183 6 4 7 1 3 -6 -7 -11 17
-43 109 -148 5 -6 37 -43 70 -82 l60 -70 54 -1 54 0 -49 53 c-74 79 -198 217
-326 362 -63 72 -126 143 -141 159 -15 16 -25 32 -21 35 3 3 21 -12 41 -34
122 -139 236 -254 245 -249 6 4 8 2 5 -3 -8 -13 14 -43 127 -168 50 -55 101
-113 113 -128 20 -25 27 -28 75 -25 l53 3 -61 65 c-75 80 -97 104 -188 204
-39 44 -96 106 -126 139 -30 33 -68 75 -85 95 -16 19 -47 53 -67 76 -33 36
-46 56 -35 56 2 0 60 -62 128 -137 68 -76 129 -142 137 -146 7 -5 17 -14 22
-20 5 -7 26 -32 46 -57 20 -25 77 -89 128 -143 50 -54 95 -107 100 -118 7 -16
20 -19 69 -19 l59 0 -29 33 c-16 17 -44 48 -63 68 -19 19 -59 62 -89 95 -30
32 -86 93 -125 134 -39 42 -96 103 -126 135 -31 33 -82 88 -114 123 -33 34
-54 62 -49 62 6 0 39 -30 74 -67 35 -37 101 -105 147 -151 45 -47 82 -86 82
-89 0 -2 70 -80 156 -173 l156 -170 122 0 121 0 -330 330 c-295 295 -347 350
-333 350 3 0 62 -58 133 -130 88 -88 138 -131 158 -136 21 -4 26 -9 16 -14 -9
-6 16 -38 92 -117 58 -59 142 -147 188 -195 l84 -88 151 0 151 1 -115 110
c-63 61 -164 156 -224 212 -60 56 -161 153 -225 215 -83 82 -133 122 -176 142
-67 33 -147 43 -215 29z m300 -211 c42 -42 66 -58 86 -58 21 0 24 -3 15 -14
-9 -11 8 -34 89 -115 55 -55 100 -104 100 -108 0 -8 13 -20 -262 248 -126 122
-228 227 -228 233 0 6 32 -21 71 -59 39 -39 97 -96 129 -127z m-229 -20 c96
-99 190 -198 209 -219 19 -21 64 -69 100 -106 144 -153 102 -117 -91 78 -242
244 -415 429 -402 429 5 0 88 -82 184 -182z m-921 78 c0 -11 -19 -15 -25 -6
-3 5 1 10 9 10 9 0 16 -2 16 -4z m1281 -76 c18 -10 27 -40 12 -40 -10 0 -43
32 -43 42 0 11 7 10 31 -2z m243 -360 c11 -14 -1 -5 -27 20 -26 24 -47 48 -47
54 0 8 26 -17 74 -74z"/>
<path d="M1880 474 c0 -10 28 -34 39 -34 6 0 2 9 -9 20 -20 20 -30 25 -30 14z"/>
<path d="M1940 460 c0 -5 5 -10 11 -10 5 0 7 5 4 10 -3 6 -8 10 -11 10 -2 0
-4 -4 -4 -10z"/>
<path d="M1856 432 c-8 -14 37 -23 49 -10 7 8 6 9 -3 4 -7 -4 -19 -3 -27 4 -8
6 -16 7 -19 2z"/>
<path d="M7294 394 c9 -8 16 -21 16 -28 0 -7 8 -21 18 -32 9 -10 64 -90 122
-176 58 -87 111 -158 118 -158 6 0 12 2 12 5 0 7 -63 98 -103 149 -41 52 -66
87 -128 179 -29 42 -57 77 -62 77 -5 0 -1 -7 7 -16z"/>
<path d="M9145 240 c3 -5 11 -10 16 -10 6 0 7 5 4 10 -3 6 -11 10 -16 10 -6 0
-7 -4 -4 -10z"/>
<path d="M9181 212 c-1 -8 8 -16 19 -19 11 -3 20 -10 20 -15 0 -13 56 -68 69
-68 6 0 11 -4 11 -9 0 -6 21 -30 48 -55 l47 -46 278 0 277 0 0 85 0 85 -30 0
c-19 0 -30 5 -30 14 0 11 -28 13 -146 11 -81 -2 -149 -7 -153 -13 -5 -7 -114
-20 -211 -24 -35 -1 -85 11 -88 21 -6 19 -20 12 -25 -11 -3 -22 -4 -22 -15 5
-8 19 -19 27 -36 27 -13 0 -27 6 -29 13 -4 9 -6 9 -6 -1z"/>
<path d="M4303 40 c0 -25 2 -35 4 -22 2 12 2 32 0 45 -2 12 -4 2 -4 -23z"/>
<path d="M4348 3 c7 -3 16 -2 19 1 4 3 -2 6 -13 5 -11 0 -14 -3 -6 -6z"/>
</g>
</svg>
